<svg xmlns="http://www.w3.org/2000/svg" viewbox="0 0 630 630" fill="currentColor">
<path d="m255.75-.312 2.136.007C268.505-.247 278.72.076 289 3l2.468.7c37.36 10.948 66.476 33.963 85.774 67.929 5.103 9.785 8.872 19.876 11.633 30.558l.616 2.334c1.765 7.304 1.954 13.703 2.509 21.479h76l-.437 33.32c.024 7.117.061 14.212.277 21.322l.082 2.72c.7 20.742 3.787 40.901 7.703 61.255l.496 2.577c1.995 10.313 4.102 20.6 6.256 30.881 1.852 8.857 3.624 17.73 5.39 26.604 2.164 10.861 4.336 21.72 6.571 32.566l.47 2.278q1.082 5.25 2.175 10.498l.765 3.695.663 3.186c3.76 19.787 3.36 42.75-2.411 62.098l-.617 2.07C490.126 437.909 481.39 453.587 470 467c-.701.84-1.403 1.68-2.125 2.547-13.227 15.397-31.105 27.202-49.875 34.64l-2.385.974c-17.77 6.743-35.85 7.424-54.635 7.357q-3.83.008-7.66.02c-6.165.017-12.33.015-18.496.003q-7.526-.013-15.053-.006l-2.179.002-4.384.004c-13.646.011-27.291-.002-40.937-.023a11247 11247 0 0 0-34.998.003 16463 16463 0 0 1-45.177.014l-2.169-.002q-7.504-.003-15.008.012-10.13.018-20.259-.02-3.696-.007-7.392.006c-38.136.125-70.452-11.292-97.955-38.156L47 472l-1.535-1.398c-21.555-20.131-33.01-52.778-34.372-81.739-.528-19.673 3.635-38.77 7.644-57.911 1.02-4.879 2.007-9.763 2.988-14.65l.51-2.541 1.034-5.144c2.274-11.322 4.566-22.64 6.948-33.939a1954 1954 0 0 0 6.193-30.588l.494-2.543c3.895-20.238 6.627-40.22 7.252-60.84l.076-2.52c.47-17.395-.006-34.79-.232-52.187h76l1-14c.616-3.355 1.26-6.534 2.125-9.812l.665-2.56C129.096 80.053 138.465 62.147 152 47l2.516-2.95c16.446-18.98 38.832-32.14 62.734-39.425l2.36-.723C231.534.466 243.385-.382 255.75-.312M174 69c-12.585 15.717-23 36.532-23 57h210c-2.898-28.975-16.396-52.686-38-72-3.21-2.56-6.523-4.82-10-7l-2.316-1.543C265.782 16.682 207.983 30.514 174 69m-99 88c0 49.397 7.55 83.496 40.875 117.25 15.97 15.723 35.016 27.274 56.125 34.75l2.036.726C186.303 313.979 199.97 317 213 317v-37h86v37c38.202-3.16 70.37-17.397 98-44l2.098-1.906C419.355 252.126 429.34 227.043 437 201v-44zM64 259a9251 9251 0 0 0-8.214 41.628 4077 4077 0 0 1-3.814 19.338c-1.248 6.24-2.47 12.484-3.676 18.732q-.69 3.541-1.407 7.076C41.406 372.864 39.677 399.564 52 425l1.559 3.238C57.506 435.997 62.167 442.552 68 449l2.34 2.59c16.03 16.862 37.678 27.315 60.785 29.53l2.608.253c10.376.921 20.741.908 31.15.886l6.65.01c5.959.01 11.917.006 17.876 0 6.274-.005 12.548 0 18.822.002q16.804.005 33.607-.012 15.17-.012 30.34.002 17.708.016 35.414.009 9.34-.007 18.68.003 8.786.007 17.572-.01 3.2-.004 6.4.002c10.258.02 20.423-.156 30.64-1.148l2.402-.232c26.401-2.873 49.63-17.366 66.116-37.873 17.393-23.874 22.867-51.544 18.779-80.672-1.086-6.714-2.423-13.375-3.775-20.04a4131 4131 0 0 1-1.412-7.282 3285 3285 0 0 0-3.729-18.864c-1.285-6.453-2.541-12.912-3.8-19.37-2.46-12.6-4.951-25.195-7.465-37.784-3.223 3.136-5.688 6.315-8.187 10.063-4.269 6.278-8.851 12.184-13.813 17.937-.425.494-.85.988-1.29 1.497-6.34 7.301-13.01 13.607-20.71 19.503l-2.832 2.238c-27.65 21.432-61.734 34.289-96.67 36.52-2.626.16-2.626.16-5.498 1.242v37h-86v-37c-2.973-.99-5.64-1.252-8.748-1.493-37.635-3.084-75.539-18.446-103.139-44.515-1.934-1.824-3.932-3.496-5.988-5.18-9.285-8.145-16.71-18.217-23.472-28.482l-1.278-1.932-1.102-1.697C67.7 262.598 65.87 260.843 64 259m180 52v43h24v-43z" transform="translate(50, 60)"/></svg>