<svg xmlns="http://www.w3.org/2000/svg" viewbox="0 0 600 600" fill="currentColor">
<path d="M304.945 32.57C316.134 41.47 324.667 53.283 329 67v3l3.813-.25c22.3.063 45.6 9.776 62.187 24.25l1.863 1.574c28.405 25.924 35.373 78.12 37.337 114.082.39 9.761.582 19.53.733 29.298.061 3.655.152 7.31.247 10.964l.026 3.33c.177 6.13.967 10.015 4.568 15.013 5.503 7.806 5.944 18.844 6.413 28.051l.223 3.71c.213 3.66.402 7.318.59 10.978l.34 5.71c1.535 27.926 1.513 56.382-.34 84.29l-.13 2.25c-.585 9.094-2.885 15.858-7.214 23.727A59.5 59.5 0 0 0 436 435l1.695-.487c4.272-.95 8.633-.74 12.993-.763l2.896-.062c9.152-.05 16.559 1.832 23.748 7.644 2.766 2.766 3.665 4.855 4.668 8.668-.094 5.436-1.38 8.044-5 12-8.485 5.712-18.379 8.046-28.187 10.375l-2.342.568c-82.742 20.068-189.31 40.228-299.037 4.99-10.612-6.471-19.38-13.787-26.485-24.105-1.996-2.896-4.122-5.662-6.261-8.453-2.683-3.558-3.939-5.93-4.563-10.312-.46-2.3-.46-2.3-2.125-4.063-3.59-1.168-7.043-1.9-10.75-2.556C84.623 426.181 74.924 420.197 66 411l-1.887-1.86C33.45 376.892 28.278 315.123 29 273c2.56-64.304 27.96-161.32 72-210l2.203-2.559c10.842-12.408 24.384-23.785 41.386-25.738 2.625-.138 5.22-.171 7.849-.14l2.79.027C167.31 34.898 175.923 38.989 185 47a62 62 0 0 1 6 8l1.469-2.09C205.209 35.05 220.82 21.336 243 17c22.698-3.726 43.72 1.665 61.945 15.57m-93.257 15.18C206.09 53.669 200.082 61.789 199 70l3.848-.871c5.18-1.15 10.378-2.189 15.59-3.192l2.658-.525c24.5-4.712 49.255-2.393 73.861.165l2.682.278q2.498.262 4.993.535c4.146.442 8.19.703 12.368.61-5.151-14.488-17.268-26.42-31-33-26.066-10.93-51.72-5.274-72.312 13.75M114 67c-11.528 12.943-19.611 28.443-27 44l-1.062 2.204C65.393 156.094 48.43 207.579 43 255l-.277 2.29c-4.947 44.206 1.2 106.342 29.715 142.647C81.206 410.144 91.71 415.964 105 418q-.798-12.36-1.719-24.71c-1.638-22.096-2.975-44.132-3.281-66.29l-.033-2.203c-2.545-173.063-2.545-173.063 48.35-226.078C158.81 88.087 169.526 81.132 184 77c-.965-10.76-3.26-18.248-11.625-25.375C151.868 37.428 128.557 51.51 114 67m91.938 12.688c-.83.253-1.66.506-2.514.768C190.727 84.51 179.344 90.566 169 99l-2.578 2.082c-29.76 25.332-34.562 65.81-39.672 102.168l-.397 2.82c-2.993 21.428-3.785 42.616-4.189 64.224a820 820 0 0 1-.473 16.003q-.098 3.54-.191 7.078l-.166 3.14c-.146 8.161 2.789 13.086 7.666 19.485l2.336 3.086c4.716 5.295 9.144 9.07 15.664 11.914l3 1.313c8.259 1.892 15.46.524 23-3.313l1.985-.99c3.51-2.116 5.643-3.723 6.808-7.752.36-3.512.471-6.958.504-10.488l.204-6.065c.066-2.15.114-4.3.155-6.452.089-4.476.232-8.948.39-13.422l.078-2.265.16-4.54q.118-3.423.228-6.847c.45-13.65 1.312-27.254 2.425-40.866l.258-3.165C194.067 130.767 194.067 130.767 229 100c7.322-5.921 15.334-10.414 23.625-14.812l2.601-1.383C261.316 80.659 267.512 78.2 274 76c-2.556-2.556-4.25-2.258-7.737-2.304l-2.392.003-2.492-.013a914 914 0 0 0-5.259-.002c-2.62.003-5.24-.02-7.86-.045-14.56-.056-28.363 1.756-42.322 6.049m33.907 27.932L237 110c1.857 9.391 3.728 18.78 5.623 28.164q1.062 5.252 2.103 10.51C248.36 167.051 252.462 184.915 267 198l1.336 1.383c12.292 11.917 31.634 15.852 48.101 15.68l2.506-.014q3.03-.02 6.057-.049l.297-2.082.453-2.73.422-2.708c1.025-3.069 2.015-3.936 4.828-5.48 3.078-.66 5.913-.605 9 0 2.756 2.182 4.436 3.872 6 7 18.106-3.504 32.339-13.152 43.293-28.137 7.38-11.479 11.448-23.46 13.707-36.863l.719-3.398C405.424 129.645 401.1 121.779 395 113c-13.762-18.448-34.136-27.442-56.437-30.75-33.963-4.625-71.994 3.02-98.718 25.37M216 136c-14.102 30.143-16.169 63.335-18.766 96.068q-.343 4.267-.7 8.533C190.219 317.83 193.88 395.817 199 473c9.525 3.175 20.598 2.241 30.563 2.25l2.36.003c25.949-.022 51.522-2.832 77.077-7.253v-1l-1.83-.028c-17.222-.335-31.584-1.405-44.393-14.19-8.164-9.402-11.722-20.617-12.042-32.935l-.102-3.644-.098-3.926-.114-4.112q-.12-4.356-.237-8.713-.304-11.31-.641-22.62l-.067-2.246c-.354-11.832-.88-23.645-1.601-35.461-.63-10.604-1.125-21.19-1.25-31.812l-.079-3.37c-.025-10.863 3.528-19.333 10.704-27.505 9.187-8.144 19.384-10.539 31.344-11.946l6.238-.788 3.292-.408c22.823-2.846 45.417-6.513 68.021-10.74 8.065-1.507 16.13-2.992 24.226-4.322l2.25-.384c6.627-1.058 13.492-1.603 20.067.025l2.074.492c2.778.786 5.501 1.714 8.238 2.633-.717-47.917-.717-47.917-9-95-2.186 3.28-3.04 6.109-4.187 9.875-3.79 11.793-9.583 21.854-17.813 31.125l-1.758 2.043C378.471 211.808 362.916 218.037 347 224l-.175 1.865-.247 2.451-.237 2.428c-.46 3.04-1.354 4.914-3.341 7.256-3.691 2.32-6.966 2.222-11.137 1.531-2.935-.837-4.15-2.027-5.863-4.531a233 233 0 0 1-2-7l-3.883.07c-29.747.384-54.038-6.63-75.805-27.445C227.22 182.963 220.153 159.8 217 136zm172.953 123.504-4.679.985-2.473.53c-15.779 3.362-31.606 6.222-47.551 8.668l-2.836.437c-9.98 1.531-19.969 2.971-29.98 4.282l-2.526.335a999 999 0 0 1-11.694 1.486c-9.95 1.251-17.648 3.169-24.671 10.738-7.71 10.17-5.97 22.104-4.543 34.035 55.815 6.103 110.541-9.443 163.719-24.34l2.757-.769 2.522-.711 2.206-.62c1.871-.53 1.871-.53 3.796-1.56-.16-8.488-1.526-14.754-6-22l-1.687-2.75c-7.275-7.078-15.89-10.444-25.933-10.364-3.571.171-6.945.842-10.427 1.618m40.003 48.578-2.622.721-2.877.795-9.332 2.558C373.895 323.16 333.794 332.836 292 335l.977 3.121c1.613 5.674 2.362 12.284.265 17.914-1.85 2.966-3.846 5.116-7.242 5.965-3.545-.014-6.663-.179-9.73-2.062-1.998-3.05-1.622-6.235-1.52-9.75l.016-2.12c.048-3.24.276-6.32.812-9.517L276 336c-1.163-1.392-1.163-1.392-4.379-1.098q-2.091.01-4.183.036l-2.155.013q-2.64.02-5.283.049c-.108 10.929.019 21.801.576 32.716.336 7.035.515 14.067.643 21.108l.055 2.934c.075 3.948.149 7.897.205 11.845-.15 23.358-.15 23.358 10.834 43.21 9.09 8.518 19.723 9.507 31.687 9.187 4.888-.282 9.753-.71 14.625-1.187l2.022-.198c28.238-2.812 55.901-9.27 82.978-17.678l3.032-.92c10.016-3.22 19.114-7.504 24.343-17.017 3.248-7.213 4.633-13.755 4.75-21.625l.085-3.143c.086-3.744.132-7.487.165-11.232l.023-2.316c.443-36.898.443-36.898-2.023-73.684-1.74 0-3.374.621-5.044 1.082M122 327a180 180 0 0 0-1.316 18.14l-.064 2.62q-.097 4.245-.183 8.49l-.06 2.95A3889 3889 0 0 0 120 381c-.015 1.051-.03 2.103-.047 3.186q-.132 9.307-.184 18.614-.019 2.928-.053 5.856c-.03 2.735-.04 5.469-.044 8.203l-.037 2.41c.033 8.456 2.27 15.636 8.212 21.756 6.6 6.054 15.49 9.799 23.403 13.85 7.765 4.004 15.411 8.12 22.91 12.602C178.55 469.832 182 471 187 471a3436 3436 0 0 0-1.719-39.93c-1.508-30.686-2.818-61.346-3.281-92.07l-2.45 1.059-3.238 1.378-3.199 1.372c-9.795 3.748-20.951 3.49-30.59-.551-7.093-3.536-12.56-7.965-17.992-13.719L123 327zM466 74c2.438 1.625 2.438 1.625 4 4 .063 3.063.063 3.063-1 6-4.026 3.075-8.381 3.927-13.25 4.875-6.296 1.3-12.422 2.846-18.562 4.75-18.081 5.513-18.081 5.513-23.481 3.535C412 96 412 96 411 94c-.23-5.538-.23-5.538 1-8 2.152-.69 4.339-1.272 6.535-1.805l2.033-.5c2.163-.531 4.329-1.05 6.495-1.57l4.205-1.027q3.16-.775 6.323-1.538a560 560 0 0 0 10.826-2.71 1536.827 1536.827 0 0 0 8.092-2.12c3.32-.694 6.117-.994 9.491-.73M373.625 14c2.98 1.255 3.985 2.065 5.375 5-.448 5.344-1.86 10.046-3.652 15.05l-.789 2.243a1210 1210 0 0 1-1.652 4.652c-.847 2.375-1.681 4.755-2.514 7.135q-.803 2.267-1.608 4.533l-.754 2.156c-1.8 5-1.8 5-4.031 7.231-6.243.568-6.243.568-8.722-1.29C354 59 354 59 353.984 55.332c1.003-6.694 3.313-13.086 5.516-19.463a529 529 0 0 0 2.2-6.582q.717-2.108 1.44-4.213l.642-1.973c1.728-4.877 4.243-9.101 9.843-9.101M415 42c1.438 1.75 1.438 1.75 2 4-.664 6.421-4.973 10.26-9 15l-2.062 2.648c-4.946 6.124-4.946 6.124-9.75 7.227C393 70 393 70 391 67.813c-1.18-3.319-1.07-4.488 0-7.813 2.074-2.648 2.074-2.648 4.688-5.375 3.017-3.195 6-6.372 8.812-9.75 3.63-4.175 5.208-4.308 10.5-2.875" transform="translate(70, 60)"/></svg>