<svg xmlns="http://www.w3.org/2000/svg" viewbox="0 0 600 600" fill="currentColor">
<path d="M446 32c2.312 1.66 3.75 3.04 4.482 5.846.313 2.34.506 4.663.662 7.018l.221 2.678c.229 2.819.432 5.638.635 8.458q.21 2.646.424 5.293c.45 5.627.862 11.257 1.272 16.887q.236 3.212.474 6.424.635 8.627 1.264 17.256l.79 10.817q1.386 18.918 2.763 37.837 1.279 17.56 2.573 35.119 1.115 15.15 2.217 30.3.654 9.016 1.321 18.032.627 8.478 1.236 16.957.224 3.09.455 6.179c.721 9.663 1.357 19.329 1.55 29.02l.086 2.244c.027 3.491-.16 5.291-2.321 8.094-2.905 2.128-4.71 2.111-8.202 1.936-2.933-.609-4.196-2.006-5.902-4.395-.853-2.56-1.196-4.356-1.389-6.994-.06-.815-.122-1.63-.185-2.468l-.192-2.71-.213-2.881q-.351-4.799-.695-9.597l-.503-6.864q-.683-9.337-1.357-18.675-.708-9.76-1.422-19.52-1.195-16.395-2.383-32.791a67910 67910 0 0 0-2.453-33.74l-.153-2.097-.153-2.095a148553 148553 0 0 1-3.784-51.98q-.666-9.142-1.327-18.286l-.49-6.718q-.332-4.579-.662-9.157l-.199-2.697-.177-2.484-.155-2.134C433.987 57.744 434 55.37 434 53l-24 10c-.264 30.005.476 59.99 1.161 89.985q.257 11.274.504 22.548.445 20.153.898 40.304l.055 2.419.873 38.848q.45 20.102.895 40.203.271 12.315.553 24.628.192 8.452.378 16.906.107 4.843.219 9.685c.42 18.162.533 36.308.464 54.474l2.841.92c2.992 1.023 5.479 2.232 8.214 3.803l2.867 1.634 2.953 1.705 5.742 3.286 2.848 1.634c3.966 2.27 7.95 4.508 11.934 6.746l2.225 1.251L461 427l-.266-3.52q-1.244-16.482-2.472-32.966-.631-8.473-1.271-16.945-.619-8.19-1.226-16.378-.23-3.112-.469-6.223c-.48-6.32-.927-12.64-1.296-18.968l-.128-2.124c-.099-1.813-.16-3.627-.218-5.442l-.098-2.877c.592-3.406 2.082-5.09 4.444-7.557 3.7-1.098 7.085-.492 10.438 1.313 2.487 2.686 2.715 5.438 2.98 8.944.066.869.134 1.737.203 2.632l.211 2.88.232 3.042q.378 5.001.748 10.002l.527 6.98q.553 7.338 1.1 14.678.695 9.33 1.401 18.662.546 7.224 1.087 14.45l.516 6.87q.706 9.342 1.354 18.69c.2 2.82.421 5.636.643 8.454q.182 2.574.36 5.15c.067.768.133 1.536.2 2.328.206 3.233.082 5.704-1.05 8.753-4.628 5.154-12.299 6.185-18.782 7.776l-2.914.73q-4.746 1.186-9.496 2.357l-6.632 1.655q-8.717 2.173-17.438 4.332a12567 12567 0 0 0-14.196 3.534q-8.492 2.116-16.984 4.23l-3.25.808q-4.584 1.14-9.168 2.276l-2.702.672q-2.52.624-5.043 1.227c-1.476.362-2.947.75-4.408 1.173-15.908 4.286-34.132.549-50.209-1.02-3.677-.358-7.356-.706-11.034-1.056q-10.774-1.027-21.547-2.071a19363 19363 0 0 0-25.12-2.416 57641 57641 0 0 1-44.823-4.315q-21.725-2.1-43.451-4.179a71967 71967 0 0 1-52.458-5.038l-2.512-.242q-8.748-.842-17.497-1.679-10.658-1.02-21.313-2.054-5.433-.528-10.867-1.046c-3.93-.373-7.858-.756-11.787-1.14l-3.457-.325c-15.572-1.545-15.572-1.545-18.864-5.302-1.114-3.03-1.237-4.95-.966-8.158l.253-3.294.328-3.606.47-5.865q.262-3.18.538-6.358c.388-4.502.746-9.007 1.1-13.512.727-9.243 1.482-18.484 2.243-27.725l.678-8.256q1.066-12.975 2.137-25.949 1.23-14.88 2.442-29.76.946-11.597 1.906-23.192.57-6.891 1.13-13.782.524-6.452 1.064-12.902.195-2.358.384-4.716C47.967 243.898 47.967 243.898 50 238c3.28-2.46 5.1-3.035 9.188-2.875 4.247 1.321 4.247 1.321 5.812 3.875.891 5.382 1.044 10.355.558 15.793l-.181 2.248c-.2 2.463-.413 4.925-.625 7.387l-.438 5.324q-.594 7.206-1.209 14.41c-.425 5.033-.842 10.066-1.26 15.099q-1.053 12.674-2.123 25.344-1.371 16.26-2.72 32.518-1.165 13.991-2.337 27.983l-.75 8.984q-.591 7.06-1.188 14.119l-.434 5.178a4335 4335 0 0 1-.597 7.074l-.17 2.064A124 124 0 0 1 50 434c.775.06 1.55.122 2.347.185 29.243 2.32 58.439 5.124 87.638 7.932q7.46.718 14.92 1.433 23.539 2.258 47.078 4.523 18.54 1.784 37.081 3.557 19.133 1.832 38.263 3.672 10.706 1.03 21.41 2.054 10.017.957 20.031 1.926 3.68.354 7.36.705 5.003.477 10.003.964l2.974.28 2.689.264 2.332.224C346 462 346 462 348 463l-.006-1.891c-.115-40.665.17-81.312.748-121.972q.167-11.828.327-23.654.287-21.171.585-42.341.285-20.294.562-40.587l.034-2.532.069-5.054.034-2.52.035-2.518a207079 207079 0 0 1 .734-53.421c.515-37.506 1.105-75.009 1.878-112.51l-8.526.148-2.424.041c-4.129.072-8.257.156-12.385.261q-2.2.023-4.4.038l-2.293.078c-3.885.003-5.582-.198-8.457-2.909-1.863-3.267-2.133-4.951-1.515-8.657 1.438-2.812 1.438-2.812 4-5 24.635-4.001 49.063-.474 72.64 6.75l3.07.922 2.729.847c5.547 1.042 10.17-1.497 15.17-3.68q2.238-.953 4.477-1.903 3.498-1.492 6.983-3.01a712 712 0 0 1 6.79-2.899l2.066-.918C435.738 32.1 440.81 30.756 446 32m-76 25c-.812 37.65-1.396 75.3-1.91 112.955q-.095 7.089-.194 14.178a246780 246780 0 0 0-.68 49.777l-.035 2.543q-.278 20.416-.562 40.833-.295 21.208-.584 42.418-.16 11.81-.325 23.619c-.48 34.226-.859 68.446-.71 102.677 3.548-3.517 6.913-7.113 10.125-10.937l1.427-1.693c4.786-5.714 9.465-11.528 13.948-17.484 1.5-1.886 1.5-1.886 3.277-3.75 5.802-6.434 6.115-11.372 5.74-19.804q-.049-2.056-.089-4.111a885 885 0 0 0-.262-9.607c-.196-6.305-.308-12.612-.42-18.92q-.285-15.765-.635-31.528l-.047-2.132-.193-8.685q-.25-11.265-.495-22.528-.438-20.144-.885-40.287a106922 106922 0 0 1-.905-41.221l-.052-2.411-.105-4.81-.052-2.397a215101 215101 0 0 0-1.112-50.773c-.976-44.965-.976-44.965-2.265-89.922zm39 362c-1.328 1.283-1.328 1.283-2.652 3.008l-1.588 1.971-1.697 2.146-1.749 2.181q-6.363 7.959-12.622 16a210 210 0 0 1-6.505 7.967c-2.396 2.404-2.396 2.404-2.187 4.727 8.215-1.37 16.253-3.213 24.324-5.258l3.72-.933q4.836-1.215 9.67-2.436 4.958-1.25 9.917-2.494Q437.316 443.444 447 441v-2l-2.336-1.298-16.087-8.937-3.572-1.982a789 789 0 0 1-7.822-4.387l-2.437-1.384-2.076-1.193c-1.66-.966-1.66-.966-3.67-.819" transform="translate(40, 60)"/>
<path d="M178 89c7.22 6.517 10.602 15.134 11.25 24.688-.135 7.957-3.01 16.256-8.25 22.312-2.945 1.87-3.935 2.003-7.562 1.813-3.333-.788-4.492-1.11-6.438-3.813-1.44-2.88-1.303-4.79-1-8 .987-1.752 1.977-3.502 3.031-5.215 1.603-2.954 1.91-5.45 1.969-8.785-1.59-5.212-3.472-7.981-8-11-3.715-1.857-7.946-1.442-12-1-4.978 2.353-7.057 4.887-9 10-.708 3.237-.708 3.237-1 6l1.723-1.496c8.257-6.851 8.257-6.851 14.277-6.504 2.802 1.766 4.515 3.03 6 6 .39 3.508.37 5.4-1.5 8.438-2.058 2.11-4.131 3.974-6.375 5.874-9.673 8.346-16.154 20.23-17.346 33.064-1.537 33.653 5.629 72.476 28.221 98.624l1.734 2.035c8.616 9.333 21.421 16.278 34.176 17.168 14.909.222 28.066-3.611 39.055-13.98 13.582-14.834 14.374-35.587 14.195-54.637l-.016-4.64q-.021-6.058-.065-12.118-.064-9.641-.097-19.282-.009-2.329-.024-4.658c-.057-9.667-.032-19.311 1.123-28.926.47-5.24-.907-8.062-3.852-12.184-4.15-6.005-3.911-13.79-3.229-20.778 1.944-9.142 6.645-16.325 14.379-21.633 8.813-5.082 18.56-5.865 28.512-3.754 8.426 3.008 14.985 8.646 19.109 16.575 4.176 8.975 4.009 18.316.926 27.609-1.524 3.626-3.373 6.427-6.926 8.203-6.166.57-6.166.57-9.375-1.625-2.055-3.003-2.555-4.721-2.625-8.375a60 60 0 0 1 1.5-3.812c1.88-4.584 2.05-8.455.5-13.188-2.418-3.861-4.633-6.544-9-8-4.222-.411-7.874-.475-11.812 1.188-4.013 3.324-6.273 5.897-6.938 11.124L267 116l1.61-1.242 2.14-1.633 2.11-1.617c3.467-2.442 5.322-3.523 9.64-3.445 3.5.937 3.5.937 6 3.062 1.995 3.825 1.694 5.771.5 9.875-1.686 2.14-3.53 3.638-5.68 5.293l-1.82 1.457-1.719 1.297c-5.029 5.514-6.372 11.415-6.295 18.685l-.022 2.527c-.019 2.737-.01 5.473-.003 8.21q-.015 2.884-.036 5.77c-.032 5.057-.043 10.114-.047 15.171-.008 8.064-.044 16.128-.092 24.191-.012 2.792-.012 5.583-.01 8.374-.052 23.974-2.61 47.714-20.042 65.818L251 280l-1.86 1.926c-11.22 10.812-26.334 14.979-41.577 15.449-21.9-.644-39.829-8.929-54.875-24.687C125.98 241.838 117.403 195.615 120 156c.926-6.831 3.407-12.832 6.375-19 1.456-3.077 1.686-3.691 1-7.187L126 127c-3.135-8.125-3.414-17.237-.312-25.437A87 87 0 0 1 128 97l1.063-1.957C133.25 88.368 140.396 83.818 148 82l3.063-.75C161.22 80.605 169.958 82.665 178 89" transform="translate(40, 60)"/>
<path d="M161.512 37.875a7982 7982 0 0 1 46.58-.216 6550 6550 0 0 0 27.497-.107 3954 3954 0 0 1 19.864-.063c3.896-.004 7.79-.015 11.686-.048q5.398-.044 10.795-.025c1.937 0 3.874-.024 5.81-.05 9.43.069 9.43.069 12.538 2.983 2.124 3.277 2.437 4.817 1.718 8.651-2.15 3.338-3.204 4.735-7 6-2.001.103-4.005.146-6.01.158l-3.813.03-4.196.017-4.418.03q-6.03.04-12.06.068-6.386.035-12.771.076-10.803.067-21.607.124-13.606.073-27.213.158c-39.304.242-78.607.418-117.912.339l.038 1.683c.091 7.6-.478 15.098-1.108 22.668l-.345 4.26q-.466 5.743-.942 11.485-.397 4.805-.79 9.61-.93 11.335-1.87 22.67-.968 11.677-1.915 23.356-.818 10.05-1.651 20.1-.498 5.992-.983 11.986-.456 5.63-.931 11.258a1074 1074 0 0 0-.336 4.124c-.15 1.88-.31 3.761-.47 5.641-.088 1.05-.174 2.102-.263 3.184-.567 3.888-1.528 7.465-3.559 10.85-3.13 1.878-6.389 1.75-9.875 1.125-3.003-2.002-3.823-3.222-4.62-6.735-.398-3.42-.3-6.457-.013-9.886l.156-1.94c.173-2.13.357-4.26.541-6.39l.379-4.599c.342-4.155.694-8.31 1.048-12.465.369-4.355.73-8.712 1.091-13.068q.915-10.977 1.842-21.953c.87-10.3 1.73-20.6 2.588-30.9a62040 62040 0 0 1 3.85-45.924c.274-3.28.556-6.56.855-9.838.173-2.021.317-4.046.411-6.072.215-3.596.796-6.095 2.565-9.25 5.401-3.235 11.062-2.7 17.212-2.674q2.152-.018 4.303-.043c3.906-.038 7.812-.046 11.718-.048 4.155-.007 8.31-.042 12.464-.074q10.5-.074 21.003-.104c9.373-.028 18.746-.09 28.119-.162" transform="translate(40, 60)"/></svg>