<svg xmlns="http://www.w3.org/2000/svg" viewbox="0 0 640 640" fill="currentColor">
<path d="M360.542 37.937c23.599 21.354 38.386 47.539 46.27 78.313l.591 2.286c2.965 12.27 3.898 24.467 3.792 37.054l-.008 3.971q-.014 5.141-.05 10.283c-.02 3.52-.03 7.04-.04 10.56A6666 6666 0 0 1 411 201l2.237-.02q10.46-.09 20.921-.135 5.377-.022 10.755-.071 5.193-.047 10.387-.059c1.957-.008 3.915-.031 5.872-.055h3.639l3.19-.02c4.843.582 8.062 2.322 11.311 5.922 6.614 9.554 3.096 27.633 1.17 38.635-.702 3.695-1.496 6.835-3.019 10.303-6.854 15.64-.41 32.748 3.468 48.47 1.08 4.412 2.108 8.837 3.142 13.26a3549 3549 0 0 0 5.99 25.045 5232 5232 0 0 1 6.79 28.486 9943 9943 0 0 0 11.619 48.663l.498 2.067 1.315 5.445c4.429 18.98 2.558 37.92-7.191 54.9C492.852 497.313 478.825 506.379 461 511c-4.355.856-8.473 1.128-12.91 1.134l-2.042.007q-3.385.009-6.771.006l-4.907.011q-6.74.014-13.48.017-7.27.007-14.54.022c-11.706.02-23.412.03-35.117.039l-16.548.015a103338 103338 0 0 1-69.303.044l-3.584.002c-19.149.008-38.298.033-57.447.066q-29.507.049-59.014.054c-11.04.002-22.08.01-33.12.036q-14.108.034-28.214.02c-4.794-.004-9.587-.002-14.381.017q-6.598.026-13.195.001-2.372-.004-4.745.014c-21.338.151-38.903-5.819-54.8-20.454-4.386-4.481-7.368-9.38-10.195-14.926l-.986-1.926c-11.857-24.514-4.064-50.401 1.974-75.354 1.084-4.516 2.13-9.042 3.18-13.567 3.783-16.245 7.668-32.464 11.723-48.644a3262 3262 0 0 0 5.51-22.353 819 819 0 0 1 3.327-13.237c6.961-26.492 6.961-26.492 1.387-52.963-3.28-8.508-3.028-18.033-3.177-27.019l-.08-3.019c-.013-6.024.461-9.45 4.455-14.043 4.105-3.608 7.484-4.125 12.848-4.114h3.64l3.93.016 4.023.005q5.289.006 10.579.024 5.4.014 10.798.02 10.59.016 21.182.049l-.02-2.143q-.091-10.144-.135-20.29-.022-5.212-.071-10.423c-.19-19.702.184-38.843 5.976-57.832l.778-2.617c12.03-39.353 37.62-70.702 73.66-90.383 56.71-29.864 131.288-21.893 179.354 20.625M175 59l-2.793 2.297C144.403 85.297 133.74 119.382 131 155v46h250c1.06-38.436 1.06-38.436-4.125-76.563l-.642-2.6c-8.032-30.792-26.861-57.5-54.431-73.695C275.649 22.106 216.3 24.651 175 59M62 232c.899 9.927.899 9.927 3.187 19.375l.665 2.192c2.125 6.77 4.92 13.116 8.148 19.433l1.398 2.824c15.066 29.174 41.801 49.779 72.617 59.92 8.845 2.724 17.813 4.155 26.985 5.256.23-1.039.461-2.078.7-3.148 3.771-16.4 10.033-28.722 24.55-38.317 12.967-7.238 28.085-10.14 42.625-6.223 2.554.77 4.93 1.596 7.344 2.731 3.848 1.708 5.893 2.199 10.054 1.066a147 147 0 0 0 6.711-2.812c11.876-5.107 26.455-2.708 38.075 1.922 12.963 5.945 23.101 15.88 28.253 29.281 1.69 5.082 2.818 10.22 3.688 15.5 34.53-4.144 65.84-19.265 87.75-46.813C438.925 275.73 447.878 255.341 450 232zm-1 79c-5.48 19.718-9.877 39.723-14.498 59.655a6273 6273 0 0 1-5.077 21.728 4202 4202 0 0 0-4.024 17.281q-.846 3.644-1.708 7.281C29.382 440.782 29.382 440.782 35 464l1.027 1.918c4.703 7.58 12.496 12.012 20.87 14.444 6.297 1.294 12.719 1.049 19.12 1.019q2.428.005 4.855.014c4.428.013 8.855.006 13.283-.003 4.783-.007 9.565.004 14.348.012 9.361.013 18.722.01 28.084.002a17296 17296 0 0 1 26.112-.003l6.605.003c20.636.008 41.272-.002 61.909-.018q26.55-.018 53.101.003a50202 50202 0 0 0 68.271.01l3.27-.001q11.4-.003 22.797.009 13.893.013 27.787-.01 7.086-.013 14.172-.001 6.492.013 12.983-.012 2.344-.005 4.688.006c13.778.06 23.467-1.546 33.628-11.208 6.732-7.075 9.54-14.364 9.59-24.125-.324-11.5-3.664-22.815-6.29-33.957-.818-3.483-1.617-6.97-2.42-10.455a5017 5017 0 0 0-4.07-17.502 5358 5358 0 0 1-4.697-20.233c-1.659-7.206-3.33-14.409-5.003-21.61q-.72-3.107-1.438-6.214c-.889-3.847-1.79-7.69-2.693-11.533l-.8-3.477-.748-3.155-.642-2.751c-.575-2.352-.575-2.352-2.699-4.172l-2.125 2.562C422.414 344.098 388.441 363.875 349 370q-2.705.242-5.414.402l-2.573.163a79 79 0 0 1-4.723.1c-3.472.155-5.569.552-7.984 3.173l-1.747 2.403c-5.334 6.929-11.457 12.966-17.633 19.134l-3.764 3.777a4566 4566 0 0 1-7.844 7.846q-5.024 5.019-10.026 10.06a3182 3182 0 0 1-7.755 7.767 1353 1353 0 0 0-3.697 3.713 1050 1050 0 0 1-5.167 5.161l-1.522 1.546c-4.723 4.653-8.4 5.942-14.99 6.118-5.989-1.007-10.065-4.835-14.179-9.009l-1.722-1.71a1297 1297 0 0 1-5.576-5.597l-3.907-3.905a3495 3495 0 0 1-8.162-8.191c-3.47-3.493-6.952-6.975-10.437-10.454a4658 4658 0 0 1-8.059-8.07 2575 2575 0 0 0-3.847-3.852q-2.698-2.7-5.384-5.412l-1.588-1.581c-2.62-2.658-4.892-5.331-7.016-8.405-1.936-3.287-1.936-3.287-4.722-4.168l-2.562-.173-2.905-.263-3.095-.198a808 808 0 0 1-6.516-.652l-3.302-.34c-35.268-4.248-71.831-24.074-94.186-51.875a322 322 0 0 1-3.648-4.82L62 311zm149.5 20c-4.153 6.311-5.438 11.448-4.5 19 2.876 8.595 8.747 14.411 15.113 20.602q1.47 1.456 2.938 2.916c2.552 2.533 5.119 5.05 7.69 7.565 2.63 2.58 5.245 5.173 7.863 7.765A4193 4193 0 0 0 255 404c3.375-1.468 5.617-3.349 8.23-5.924l2.499-2.45 2.673-2.657 2.772-2.745q2.904-2.88 5.797-5.77c2.454-2.448 4.923-4.88 7.397-7.308 2.377-2.34 4.736-4.697 7.097-7.052l2.668-2.609c6.417-6.465 11.771-13.114 12.492-22.485-.39-6.533-2.86-12.303-7.563-16.89-6.69-5.221-12.56-7.153-21.062-6.11-3.803 1.24-6.952 3.217-10.145 5.602-4.793 3.542-8.32 5.367-14.378 4.992-4.52-1.084-7.81-3.856-11.477-6.594-10.782-6.99-23.389-5.395-31.5 5" transform="translate(50, 70)"/></svg>