<?xml version="1.0" encoding="utf-8"?>
<svg version="1.1" x="0px" y="0px" viewBox="3.443 32.659 94.053 34.954" style="enable-background:new 0 0 100 100;" xmlns="http://www.w3.org/2000/svg">
  <defs/>
  <path d="M95.1,37c0-0.8-0.7-1.5-1.5-1.5c-28.9-1.2-57.7-1-86.6,0.7c-0.8,0-1.6,0.7-1.5,1.5C6.2,46,5.9,54.2,4.8,62.5  c-0.1,0.9,0.4,1.9,1.4,1.9c28.6-1,57.3-0.1,85.9,0.9c0.8,0,1.3-0.5,1.4-1.2c0-0.1,0.1-0.2,0.1-0.3C94.7,54.9,95.6,46,95.1,37z   M7.9,61.4c0.9-7.4,1.2-14.8,0.8-22.3c3.3-0.2,6.5-0.3,9.8-0.5c-0.1,3.1-0.1,6.2-0.2,9.4c0,1.9,2.9,1.9,2.9,0  c0.1-3.2,0.1-6.3,0.2-9.5c3-0.1,6-0.2,9-0.3c0,2.9,0.1,5.8,0.1,8.7c0,1.9,3,1.9,3,0c0-2.9-0.1-5.9-0.1-8.8c3.3-0.1,6.6-0.2,9.9-0.2  c-0.2,3.2-0.3,6.3-0.5,9.5c-0.1,1.9,2.9,1.9,3,0c0.2-3.2,0.4-6.4,0.5-9.6c3,0,6.1-0.1,9.1-0.1c0,3.2-0.1,6.3-0.1,9.5  c0,1.9,3,1.9,3,0c0-3.2,0.1-6.3,0.1-9.5c2.8,0,5.7,0,8.5,0.1c0,3.1,0,6.2,0,9.3c0,1.9,3,1.9,3,0c0-3.1,0-6.2,0-9.3  c3.4,0.1,6.9,0.1,10.3,0.2c0,3-0.1,6-0.3,8.9c-0.1,1.9,2.8,1.9,2.9,0c0.2-3,0.3-5.9,0.3-8.9c3,0.1,6,0.2,9.1,0.3  c0.3,8-0.4,15.9-1.4,23.8C63.2,61.3,35.5,60.4,7.9,61.4z"/>
</svg>