<svg version="1.1" xmlns="http://www.w3.org/2000/svg" class="icon icon-hamburger" viewBox="0 0 512 512" fill="currentColor">
<path d="M0 0 C168.96 0 337.92 0 512 0 C512 24.42 512 48.84 512 74 C343.04 74 174.08 74 0 74 C0 49.58 0 25.16 0 0 Z " fill="currentColor" transform="translate(0,364)"/>
<path d="M0 0 C168.96 0 337.92 0 512 0 C512 24.42 512 48.84 512 74 C343.04 74 174.08 74 0 74 C0 49.58 0 25.16 0 0 Z " fill="currentColor" transform="translate(0,219)"/>
<path d="M0 0 C168.96 0 337.92 0 512 0 C512 24.42 512 48.84 512 74 C343.04 74 174.08 74 0 74 C0 49.58 0 25.16 0 0 Z " fill="currentColor" transform="translate(0,74)"/>
</svg>
