<svg xmlns="http://www.w3.org/2000/svg" viewBox="0 0 600 600" fill="currentColor">
<path d="M323.473 23.852c18.426 16.02 29.883 36.69 34.277 60.71l.397 2.16c.775 4.64.743 8.877.54 13.59.18 3.4.42 5.683 2.724 8.277 3.888 3.398 8.2 6.167 12.515 8.986 5.174 3.554 9.57 8.079 14.074 12.425l2.727 2.535c12.27 11.723 22.16 25.6 30.273 40.465l1.042 1.9C435.17 199.18 444.61 228.17 444 256l3.55-.14c13.907-.39 23.918 1.365 34.45 11.14 4.83 4.773 8.466 9.682 11 16l1.03 2.547c1.216 4.33 1.294 8.286 1.306 12.762l.02 2.681q.015 2.798.015 5.595c.004 2.84.04 5.679.078 8.519q.009 2.727.012 5.455l.043 2.55c-.044 5.788-1.165 9.134-4.504 13.891-4.268 3.604-7.544 4.341-13 5l.011 1.815q.134 21.91.196 43.823c.02 7.064.049 14.128.095 21.193.044 6.82.067 13.642.078 20.463q.01 3.897.043 7.796c.03 3.648.033 7.295.031 10.943l.044 3.234c-.06 10.894-3.735 20-11.498 27.733-6.858 5.225-14.223 8.549-23 8l-.043 1.688c-.502 8.024-3.495 13.284-9.394 18.687-4.545 3.92-9.68 4.874-15.555 4.882l-3.587.02-3.914-.01-4.179.014c-3.822.012-7.645.012-11.468.01-4.125 0-8.25.01-12.375.02q-12.119.023-24.238.023-9.852.001-19.703.012-27.934.026-55.87.025h-6.087c-16.29-.001-32.578.018-48.868.046q-25.09.043-50.183.04c-9.39 0-18.781.006-28.172.027q-11.993.029-23.985.009c-4.078-.006-8.156-.007-12.234.01q-5.604.024-11.209-.004c-1.985-.004-3.97.01-5.956.027-8.235-.064-14.798-1.089-21.285-6.42-4.923-6.014-8.289-10.99-7.695-19.106l-1.836-.043C56.733 486.42 48.654 482.806 42 476c-6.387-9.15-8.3-16.468-8.227-27.513v-3.49c0-3.799.016-7.597.032-11.395l.008-7.911c.006-6.226.023-12.452.043-18.678.022-7.09.033-14.182.043-21.272Q33.931 363.87 34 342l-1.868-.376-2.452-.515-2.43-.5c-4.319-1.169-6.535-3.466-8.856-7.177-1.764-4.343-1.844-7.96-1.828-12.6l-.015-2.653q-.01-2.772.003-5.544c.008-2.797-.02-5.59-.052-8.387-.062-15.378 2.412-25.878 13.377-37.185 6.718-6.298 15.05-11.228 24.45-11.16l2.421.01 2.5.024 2.547.014q3.102.02 6.203.049l.078-2.98C69.066 225.77 76.671 198.8 90 175l1.855-3.512C99.628 157.178 109.723 144.686 121 133l2.535-2.727c8.492-8.888 18.243-16.459 28.465-23.273.519-2.002.519-2.002.555-4.34l.164-2.693.156-2.904C154.157 79.8 158.444 65.035 167 50l1.648-2.98C181.438 25.402 203.266 10.258 227 3l3.36-1.031c32.75-8.15 67.507.466 93.113 21.883M217 27l-2.508 1.336C193.99 39.969 180.718 57.673 174 80l-.742 2.371c-.948 3.332-1.34 6.415-1.301 9.856L172 96c11.117-2.857 11.117-2.857 19.031-10.418.88-2.559 1.491-5.16 2.09-7.797C195.468 67.676 201.831 60.205 209 53l1.793-1.898c12.829-12.518 30.604-16.626 47.92-16.522 18.273.487 33.434 7.43 46.287 20.42.624.59 1.248 1.18 1.89 1.79 7.01 7.167 12.634 17.847 14.048 27.773.417 2.41.417 2.41 2.062 4.437 5.244 3.22 11.181 5.1 17 7 .463-17.608-7.508-34.896-19-48l-1.723-2.187C307.066 30.877 287.075 20.368 268 18c-18.174-1.454-34.723.33-51 9m.324 42.047C214.18 73.042 212.132 77.404 210 82l2.089-.351C238.134 77.296 238.134 77.296 248 77l3.59-.121C268.586 76.59 285.349 78.727 302 82c-5.118-13.035-14.333-20.86-26.64-26.66-21.451-8.556-41.93-1.946-58.036 13.707M127 153c-17.726 20.286-30.405 45.465-36.75 71.563l-.602 2.465c-3.573 15.53-3.947 30.673-3.939 46.535q-.008 3.523-.02 7.046c-.017 6.336-.022 12.672-.024 19.008q-.003 6.942-.013 13.882-.025 18.668-.023 37.336v4.27c.001 11.458-.018 22.915-.046 34.373q-.043 17.68-.04 35.363c0 6.609-.006 13.218-.027 19.827q-.029 9.306-.005 18.61.003 3.418-.015 6.835a938 938 0 0 0 .01 9.313l-.032 2.743.028 2.525-.001 2.17c.747 3.197 2.168 4.858 4.499 7.136 2.665.744 2.665.744 5.666.63l3.521.039 3.871-.034q2.055.009 4.11.024a1171 1171 0 0 0 11.306-.005c4.063-.012 8.125.006 12.188.02 7.96.022 15.921.017 23.882.002q9.702-.015 19.404-.007l2.787.002 5.605.005c17.529.015 35.058-.002 52.586-.029q22.575-.031 45.146.005a21734 21734 0 0 0 57.98.017l2.775-.002c6.463-.005 12.925.003 19.387.014q11.81.022 23.618-.016c4.02-.013 8.038-.018 12.056-.002q5.515.021 11.029-.02c1.965-.008 3.93.009 5.896.026l3.521-.04 3.045-.002c3.651-.873 4.688-2.482 6.621-5.627.583-2.116.583-2.116.5-4.292l.03-2.516-.029-2.732.017-2.928c.014-3.24-.001-6.48-.016-9.722q.005-3.485.016-6.969a3931 3931 0 0 0-.014-18.95c-.012-5.951-.008-11.902-.004-17.853.005-11.81-.009-23.619-.033-35.428q-.036-17.133-.021-34.264.019-18.684-.001-37.369-.014-9.877-.006-19.753.007-9.312-.027-18.623-.008-3.396 0-6.791c.071-36.777-8.436-71.14-29.412-101.81l-1.183-1.731C390.227 159.22 383.74 152.077 377 145l-2.102-2.297c-30.156-31.902-73.398-46.454-116.191-48.89-50.742-1.146-98 22.116-131.707 59.187M42.816 280.059c-6.054 6.4-8.085 11.402-8.011 20.308l.015 3.77.055 4.738L35 324h33v-50c-14.626-.707-14.626-.707-25.184 6.059M444 274v50h33l.188-15.062.082-4.712.023-3.761.048-3.825c-.73-7.799-4.72-13.385-10.341-18.64-7.024-5.738-13.567-4-23-4M52 342a10694 10694 0 0 0-.26 44.568c-.025 6.898-.06 13.797-.117 20.695-.055 6.66-.084 13.318-.097 19.977q-.015 3.808-.055 7.617c-.036 3.56-.04 7.118-.039 10.678l-.054 3.172C51.425 455.375 52.63 459.858 57 465c2.003 1.702 2.003 1.702 4.125 2.5l2.008.906c2.017.746 2.017.746 4.867.594V342zm392 0v127c5.469-.752 5.469-.752 9.688-3.187l1.699-1.168c4.561-4.65 4.96-9.498 4.986-15.69l-.032-3.193v-3.401c-.001-3.702-.025-7.402-.048-11.103q-.009-3.855-.013-7.71c-.01-6.066-.034-12.133-.064-18.2-.034-6.908-.05-13.818-.065-20.727-.031-14.207-.085-28.414-.151-42.621z" transform="translate(50, 40)"/>
<path d="M142.196 280.74c1.013-.005 2.025-.008 3.068-.012 3.385-.01 6.769-.007 10.153-.003l7.29-.015q8.865-.017 17.73-.012 7.209.002 14.418-.005l2.075-.001 4.173-.004q19.558-.014 39.116-.003c11.918.006 23.836-.006 35.753-.025q18.373-.03 36.746-.024c6.872.002 13.744 0 20.616-.014q9.694-.019 19.389.002 3.555.004 7.11-.009c3.239-.01 6.477-.002 9.717.01l2.83-.022c8.332.069 15.812 1.709 22.05 7.526 5.889 7.017 7.689 14.83 7.704 23.809l.013 3.53-.002 3.83.01 4.067q.013 5.508.012 11.015.001 3.446.006 6.892.014 12.037.012 24.073.001 11.196.026 22.392.019 9.633.018 19.265-.002 5.743.013 11.488.014 5.406.003 10.812c-.002 1.941.006 3.883.015 5.824-.038 10.52-.857 19.821-8.26 27.874-5.753 4.329-11.085 7.117-18.337 7.134l-2.624.014h-2.868l-3.058.01q-5.087.015-10.174.019l-7.283.02c-7.293.02-14.585.03-21.878.039l-10.31.015a40121 40121 0 0 1-43.177.044l-2.233.002c-11.93.008-23.86.033-35.79.066q-18.385.049-36.77.054c-6.878.002-13.756.01-20.634.036-6.473.025-12.946.028-19.419.018q-3.558 0-7.118.02c-3.246.017-6.49.01-9.736-.003l-2.828.033c-7.97-.078-14.382-2.352-21.075-6.646-6.68-7.146-8.806-15.203-8.822-24.813l-.013-3.53.002-3.83-.01-4.067q-.014-5.508-.012-11.015-.002-3.446-.006-6.892-.014-12.037-.012-24.073-.001-11.196-.026-22.392a9002 9002 0 0 1-.018-19.265q.002-5.743-.013-11.488-.014-5.406-.003-10.812c.002-1.941-.006-3.883-.015-5.824.039-10.769 1.108-19.427 8.26-27.874 7.057-6.652 14.9-7.298 24.196-7.26M130 302c-2.843 7.476-2.843 7.476-2 22h256c1.05-14.818 1.05-14.818-3-23-2.697-1.995-4.954-2.25-8.258-2.254l-2.569-.018-2.808.011-2.994-.011c-3.32-.01-6.64-.007-9.96-.003q-3.566-.007-7.13-.015-8.688-.017-17.374-.012-7.06.002-14.12-.005l-2.03-.001-4.08-.004q-19.14-.014-38.28-.003c-11.675.006-23.35-.006-35.025-.025q-17.979-.03-35.958-.024c-6.73.002-13.46 0-20.19-.014q-9.492-.019-18.982.002-3.488.004-6.975-.009c-3.169-.01-6.337-.002-9.505.01l-2.801-.022c-6.517.047-6.517.047-11.961 3.397m41 40c-.069 4.894-.129 9.785-.165 14.679a757 757 0 0 1-.061 4.99c-.037 2.396-.054 4.79-.067 7.186-.015.74-.03 1.48-.047 2.242-.001 4.486.555 7.344 3.34 10.903 3.129 1.564 5.556 1.356 9 1 3.183-2.892 3.95-4.57 4.454-8.872q-.001-2.246-.063-4.491l-.018-2.4a662 662 0 0 0-.123-7.55q-.03-2.567-.055-5.134c-.04-4.186-.119-8.368-.195-12.553zm-43 0c-.068 13.048-.123 26.096-.155 39.144a5996 5996 0 0 1-.071 18.176 4129 4129 0 0 0-.059 17.545q-.008 3.345-.032 6.69c-.022 3.126-.025 6.252-.024 9.379l-.032 2.785c.026 5.504.598 9.472 3.373 14.281 2.804 1.783 4.965 2.25 8.258 2.254l2.569.018 2.808-.011 2.994.011c3.32.01 6.64.007 9.96.003q3.566.007 7.13.015 8.688.017 17.374.012 7.06-.002 14.12.005l2.03.001 4.08.004q19.14.014 38.28.003c11.675-.006 23.35.006 35.025.025q17.979.03 35.958.024 10.095-.005 20.19.014 9.492.018 18.982-.002 3.487-.004 6.975.009c3.169.01 6.337.002 9.505-.01l2.801.022c4.783-.041 8.12-.207 11.961-3.397 2.574-5.086 2.27-10.385 2.227-15.953v-3.036c0-3.23-.016-6.46-.032-9.69l-.006-5.999c-.01-7.399-.038-14.798-.064-22.197L384 342H205l-1 40c-4.213 8.425-6.575 13.002-14.375 17.312-8.094 2.12-15.478 2.365-23.05-1.574-7.29-4.545-10.565-9.355-12.575-17.738-.304-2.999-.37-5.984-.414-8.996l-.059-2.526c-.06-2.638-.106-5.277-.152-7.916l-.117-5.396c-.097-4.389-.177-8.777-.258-13.166zM365 155l2.055 1.89c20.88 19.96 34.15 48.095 40.257 75.985l.521 2.341c1.291 6.284 2.524 12.892-.27 18.846-3.22 2.434-5.303 2.533-9.247 2.602-3.717-1.066-5.005-2.541-7.316-5.664-1.19-3.876-1.799-7.814-2.437-11.812-4.965-27.351-17.541-49.96-36.563-70.188l-1.594-1.79C332.452 147.884 306.79 137.877 282 131l.063 3.254c.073 4.02.119 8.04.157 12.06q.03 2.6.082 5.199c.363 18.558.363 18.558-4.302 25.487l-1.121 1.708c-3.688 4.968-8.805 8.13-14.879 9.292-9.18.682-16.374.036-23.75-5.687-4.353-3.976-6.415-8.808-8.25-14.313a227 227 0 0 1-.098-8.387l.005-2.476c.005-2.608.018-5.216.03-7.824q.008-2.654.014-5.307.017-6.502.049-13.006c-36.522 10.064-66.678 28.137-88 60l-1.957 2.914c-10.049 16.105-14.781 34.21-18.561 52.608l-.513 2.431-.448 2.173c-.834 2.997-1.867 4.268-4.521 5.874-4.861.694-6.836.728-11-1.875-4.74-7.406-1.535-16.741.24-24.83 6.595-28.514 20.374-53.411 40.76-74.295l2.125-2.312C170.727 129.715 205.396 114.163 238 111l3.64-.367C288.506 106.805 330.876 123.24 365 155m-117-26q-.185 7.552-.275 15.106-.037 2.568-.102 5.136c-.061 2.465-.09 4.929-.111 7.395l-.078 2.308c-.003 4.026.392 5.834 2.909 9.039 2.52 2.211 2.52 2.211 5.657 2.641 4.108-.856 5.42-2.339 8-5.625.439-2.992.589-5.39.488-8.363l-.021-2.4c-.028-2.518-.09-5.033-.154-7.55q-.038-2.567-.069-5.134c-.055-4.185-.141-8.369-.244-12.553-1.352-.2-2.707-.384-4.062-.562l-2.286-.317c-3.312-.151-6.388.34-9.652.879" transform="translate(50, 40)"/></svg>