<svg xmlns="http://www.w3.org/2000/svg" viewbox="0 0 640 640" fill="currentColor">
<path d="M170.508 35.402C176.275 39.628 181.718 44.186 187 49l2.832 2.578C208.879 69.781 224.109 95.498 231 121v3h2l.31-1.648c1.179-5.805 2.967-11.048 5.315-16.477l1.069-2.493c16.667-38.249 44.98-68.23 83.853-84.05L327 18c1.098-.43 2.197-.859 3.328-1.3C351.635 8.983 379.388 2.205 401 12a79 79 0 0 1 10 6l1.855 1.262C421.918 26.167 427.978 37.227 431 48l.526 1.852c3.754 17.017-.451 34.315-9.385 48.832A206 206 0 0 1 412 113l-1.965 2.55c-4.093 5.213-8.408 10.18-12.879 15.071-1.952 2.154-3.839 4.35-5.719 6.566-2.873 3.296-5.955 6.154-9.289 8.977-2.333 1.994-4.58 4.068-6.836 6.149-3.908 3.534-7.954 6.793-12.144 9.98l-1.806 1.381Q359.182 165.34 357 167l3.338.011a7866 7866 0 0 1 31.164.173c5.34.04 10.68.072 16.02.087 5.155.015 10.31.05 15.465.097q2.947.023 5.896.024c2.756.002 5.51.03 8.266.062l2.456-.015c6.499.12 10.16 2.265 14.737 6.967 2.578 5.587 2.228 11.014 2.19 17.094l.01 3.967q.009 4.146-.02 8.29c-.023 3.532-.01 7.061.014 10.592.018 3.384.005 6.767-.005 10.151l.025 3.826c-.117 10.907-.117 10.907-4.556 15.674-4.572 3.777-5.754 4-12 4v33l2-1c16.179-1.53 29.957.82 43 11 10.872 9.724 18.165 23.937 19.176 38.539.581 12.05.432 23.166-4.176 34.461l-1.215 3.055c-5.244 11.704-14.09 20.686-23.514 29.133-5.612 5.04-10.9 10.383-16.184 15.762-3.939 3.987-7.965 7.783-12.234 11.416L445 425l-2.086 1.749c-2.407 2.831-2.408 4.225-2.396 7.902l-.021 3.44.034 3.706-.021 3.826c-.026 4.725-.017 9.45-.005 14.174.01 4.625-.01 9.25-.036 13.875l.034 3.681c-.048 8.099-.98 13.626-6.468 19.89l-1.973 1.632-1.964 1.68c-4.463 3.074-8.287 3.696-13.657 3.702-.972.006-.972.006-1.964.01-2.176.01-4.351.005-6.527 0l-4.722.014c-4.33.012-8.658.012-12.986.01-4.668 0-9.335.01-14.003.02-9.145.017-18.29.022-27.436.023q-11.15.002-22.3.012-31.602.026-63.206.025h-6.89c-18.437-.001-36.873.018-55.31.046q-28.388.043-56.777.04c-10.627 0-21.255.006-31.882.027q-13.572.029-27.144.009c-4.617-.007-9.234-.007-13.85.01q-6.342.024-12.682-.004-2.292-.005-4.585.012c-9.177.062-16.206-.155-23.42-6.476l-1.632-1.973-1.68-1.964c-3.754-5.449-3.726-10.37-3.686-16.773l-.005-2.97c-.003-3.287.008-6.575.019-9.862v-7.066c-.002-6.399.01-12.797.024-19.195.012-6.008.013-12.016.016-18.024q.007-17.849.036-35.697.028-17.337.041-34.674l.002-2.16.007-10.724Q23.932 292.477 24 248l-2.805.102c-4.224-.135-5.961-1.43-9.195-4.102-5.325-5.718-4.58-12.013-4.531-19.5l-.012-3.967q-.008-4.146.022-8.29c.022-3.532.01-7.061-.015-10.592-.018-3.384-.005-6.767.005-10.151l-.025-3.826C7.563 176.559 7.563 176.559 12 172c5.034-4.108 8.624-4.585 14.851-4.546l2.633-.031c2.857-.03 5.714-.031 8.57-.032q2.981-.023 5.961-.05c5.218-.044 10.436-.064 15.654-.08 5.33-.019 10.658-.06 15.987-.1 10.448-.076 20.896-.126 31.344-.161l-1.382-1.117-6.278-5.082-2.175-1.757a295 295 0 0 1-13.93-11.997c-2.272-2.08-4.594-4.093-6.922-6.11-4.16-3.701-7.74-7.676-11.313-11.937l-2.457-2.797C51.607 113.695 41.496 100.384 35 85l-1.086-2.54C29.42 69.475 30.176 51.35 36 39c2.094-3.868 4.414-7.445 7-11l1.293-1.922c28.317-37.988 95.423-12.473 126.215 9.324M56.812 38.125c-7.55 9.536-9.093 19.912-8.085 31.7C50.23 81.788 56.773 90.816 64 100l2.04 2.645A372 372 0 0 0 72 110l2.344 2.906C93.255 136.091 119.03 162.094 150 167c1.436.063 2.875.087 4.313.063L158 167c-2.988-3.088-6.087-5.973-9.312-8.812C137.606 148.25 127.15 137.752 118 126a870 870 0 0 0-2.715-3.305C106.94 112.533 99.408 101.86 92 91l-1.576-2.305q-2.127-3.123-4.237-6.257l-1.256-1.858C80.471 73.882 80.3 67.908 81 60c2.384-5.034 6-8.5 11-11 19.671-2.939 41.349 9.033 56.938 20 5.29 4.042 10.224 8.43 15.062 13l2.273 2.078C188.821 105.438 201.982 137.891 207 168h16c-1.496-40.382-19.341-79.3-48.137-107.379-24.508-22.435-59.366-36.484-92.691-35.898-10.253.462-18.434 6.159-25.36 13.402M284 66l-2.68 2.68C257.238 93.962 241 133.052 241 168h16l.883-3.996c4.962-21.956 11.965-43.46 25.117-62.004l2.168-3.066C302.864 74.632 329.242 55.382 359 49c5.997-.657 11.047-.925 16.563 1.688 5.089 4.828 7.6 8.17 7.937 15.187-.096 7.986-3.021 12.706-7.5 19.125q-1.302 1.941-2.598 3.887C367.868 97.125 362.032 105.119 356 113l-2.324 3.102c-9.35 12.428-19.531 23.924-30.488 34.96l-2.389 2.417c-4.226 4.203-8.496 7.99-13.372 11.425L306 166v1c20.802 1.664 40.641-12.658 55.672-25.42 3.547-3.086 6.95-6.308 10.328-9.58l1.53-1.469C380.573 123.757 387 116.73 393 109l1.569-2.008q2.599-3.333 5.181-6.68l1.646-2.123C411.872 84.499 417.178 71.46 415 54c-2.342-9.998-8.346-18.243-16.887-23.918C362.981 10.335 309 40.866 284 66M97 65c.444 5.354 3.422 9.08 6.375 13.375l1.633 2.407C138.738 130.91 138.738 130.91 187 165l3-1c-8.667-32.994-23.715-65.515-54-84l-3.168-1.984C121.983 71.404 109.886 65.46 97 65m206.629 36.157c-4.075 4.61-7.507 9.54-10.629 14.843l-1.229 2.076C283.205 132.816 277.489 148.325 274 165c21.208-3.145 42.635-28.654 54.98-44.422 2.181-2.784 4.47-5.455 6.77-8.14C342.275 104.612 348.134 96.324 354 88l1.848-2.6c1.832-2.584 3.65-5.178 5.464-7.775l1.726-2.432 1.575-2.279 1.4-2.001c1.293-2.147 1.293-2.147.987-5.913-23.17-1.396-48.854 20.36-63.371 36.157M24 184v48h91l9-16c7.549-10.694 15.974-20.168 25.348-29.285 1.768-1.438 1.768-1.438 1.652-2.715zm142.452 9.443c-1.94 2.08-4.064 3.896-6.21 5.756-20.816 18.262-37.486 44.357-39.435 72.596-.805 28.868 4.545 63.334 24.193 86.205 1.924-1.924 1.722-5.333 2.086-7.965l.633-4.365q.491-3.435.973-6.871c2.67-18.944 2.67-18.944 5.308-24.799 3.228-1.614 6.508-1.579 10-1 1.986 1.62 3.354 3.078 5 5 8.768 9.004 19.377 15.971 32 18 2 .022 4 .025 6 0l-1.031-1.809c-18.346-32.837-27.543-68.206-17.7-105.63 3.857-13.5 9.066-26.091 15.946-38.323 1.845-3.115 1.845-3.115 2.785-6.238-22.53-2.063-22.53-2.063-40.548 9.443M228 184c-7.267 10.26-7.267 10.26-13.625 21l-1.108 2.102C207.271 218.948 202.277 232.728 201 246l-.194 1.921c-2.798 29.297 5.068 58.172 22.924 81.712l1.394 1.86q1.334 1.767 2.727 3.488c3.472 4.56 3.69 7.514 3.149 13.019-1.812 2.674-2.878 2.96-6 4l-25 1v135h64V184zm52 0v48h160v-48zM40 248a75503 75503 0 0 0-.165 98.792l-.002 2.097c-.013 11.21-.037 22.418-.064 33.627q-.043 17.251-.051 34.504c-.004 6.46-.013 12.92-.035 19.38a4460 4460 0 0 0-.022 18.236q-.001 3.349-.019 6.698c-.015 3.046-.011 6.09-.003 9.137l-.026 2.682c.036 4.974.416 8.648 3.387 12.847 3.553 2.076 6.702 2.248 10.764 2.24l3.482.009 3.806-.022h4.087c3.642.001 7.284-.01 10.926-.024 3.42-.012 6.84-.012 10.26-.014 9.996-.01 19.992-.038 29.987-.064L184 488V348l-14-7-5-3a347 347 0 0 0-4.265 37.24c-.67 10.297-.67 10.297-2.735 14.76-3.158 1.579-6.607 1.82-10 1-3.834-3.312-6.83-7.196-9.75-11.312l-1.3-1.83c-4.864-6.986-8.952-14.354-12.95-21.858l-1.871-3.422C114.083 337.311 109.139 320.923 106 304l-.586-3.14c-1.729-16.117-1.543-33.134 2.586-48.86l1-4zm240 0v240l67.625.188 21.35.082c6.318.01 6.318.01 12.635.016q4.22.005 8.44.03 5.385.03 10.771.023c1.936.002 3.873.018 5.809.034 8.13.05 8.13.05 15.37-3.373 2.549-4.074 2.26-8.48 2.195-13.145l-.008-2.332c-.011-2.445-.037-4.89-.062-7.336q-.016-2.494-.027-4.99-.035-6.099-.098-12.197c-5.03 4.201-9.683 8.599-14.256 13.295-3.254 3.309-4.7 4.56-9.369 5.205-5.758-.124-8.541-3.56-12.375-7.5a1511 1511 0 0 0-2.89-2.89 484 484 0 0 1-4.547-4.582 133 133 0 0 0-8.344-7.81c-5.689-4.92-10.88-10.333-16.153-15.69-4.22-4.263-8.506-8.335-13.056-12.24-4.653-4.139-8.935-8.678-13.3-13.116a223 223 0 0 0-12.99-12.148c-11-9.75-18.969-25.428-19.88-40.095-.792-19.332 1.555-36.567 14.348-51.866 9.07-9.38 21.11-14.587 34.046-15.563 18.314 0 32.525 7.796 45.786 19.969 3.016 3.093 5.558 6.46 7.98 10.031 3.343-1.114 4.06-1.975 6.25-4.625C411.005 298.618 416.8 293.4 424 288v-40zm141.914 62.863c-4.297 4.44-7.944 9.446-11.587 14.423l-1.577 2.151-1.39 1.934c-2.152 2.578-3.934 3.564-7.235 4.067-5.753-.806-8.963-6.343-12.437-10.688L383 317l-2.008-2.469c-4.717-5.576-9.752-9.738-15.992-13.531l-2.074-1.32c-7.506-4.09-17.552-4.09-25.711-1.95-2.22.933-4.178 1.991-6.215 3.27l-1.848.992c-8.13 4.896-12.84 14.694-15.492 23.508-2.95 15.646-.423 29.219 8.215 42.57 3.676 5.069 8.074 9.335 12.563 13.68l2.736 2.707c3.873 3.809 7.773 7.548 11.892 11.09 5.6 4.82 10.688 10.163 15.868 15.426 3.6 3.635 7.195 7.202 11.086 10.527 3.008 2.579 5.78 5.296 8.523 8.156l2.314 2.406a602 602 0 0 1 4.696 4.97l2.302 2.374 2.052 2.166c2.006 1.651 2.006 1.651 4.525 1.458 3.404-1.365 5.254-3.282 7.806-5.913l1.468-1.492a694 694 0 0 0 4.606-4.75q3.02-3.103 6.051-6.195l1.487-1.523c3.272-3.329 6.665-6.43 10.217-9.453 3.83-3.375 7.356-7.066 10.933-10.704 4.857-4.94 9.749-9.728 15-14.249 10.146-8.883 20.536-18.204 26-30.751l1.066-2.29c4.139-10.8 3.42-25.535-.808-36.136-4.847-9.92-11.534-17.707-21.977-21.855-15.578-4.909-29.114 2.556-40.367 13.144" transform="translate(60, 70)"/></svg>