<svg xmlns="http://www.w3.org/2000/svg" viewbox="0 0 630 630" fill="currentColor">
<path d="m242.367-.434 3.257-.015q3.396-.01 6.793.003c3.44.008 6.88-.02 10.321-.052q3.315-.003 6.63.002l3.08-.034c10.992.106 18.493 3.673 26.357 11.24 8.345 8.702 10.56 17.394 10.459 29.411l-.077 3.504-.04 3.621A935 935 0 0 1 309 56l1.755-.008q21.185-.1 42.37-.147c6.83-.016 13.66-.037 20.49-.071 6.594-.034 13.188-.05 19.782-.059q3.77-.008 7.54-.032c3.525-.022 7.05-.025 10.576-.024l3.133-.032c10.036.042 17.07 2.23 24.405 9.182 4.705 5.29 7.06 11.389 7.09 18.45.005.844.01 1.687.017 2.556l.003 2.78.015 2.949q.021 4.833.027 9.667l.017 6.743q.015 7.079.02 14.158c.006 6.016.03 12.032.058 18.048.019 4.648.024 9.297.026 13.945q.004 3.323.024 6.647c.159 28.745.159 28.745-6.91 41.998l-1.817 3.484C436 209 436 209 434 211c-.333 3.036-.333 3.036-.319 6.653l-.03 2.07c-.031 2.261-.048 4.523-.065 6.785q-.028 2.35-.059 4.7c-.051 4.126-.09 8.252-.128 12.379-.04 4.21-.091 8.418-.141 12.628Q433.114 268.607 433 281l2.427-.063c3.67-.084 7.34-.136 11.01-.187l3.819-.102c9.877-.103 17.77 1.479 25.068 8.489 7.378 8.2 7.397 17.535 7.323 27.986q.01 2.416.027 4.833c.022 4.349.014 8.698-.002 13.047-.013 4.566-.001 9.133.007 13.699.009 7.666-.003 15.332-.027 22.999-.027 8.844-.019 17.688.009 26.533q.034 11.42.013 22.841c-.008 4.539-.01 9.077.007 13.616q.021 6.402-.024 12.805-.01 2.34.006 4.68c.065 9.961-.611 18.324-7.623 25.958-8.364 8.143-17.389 8.355-28.54 8.553l-3.937.104q-4.781.123-9.563.209l-.743 2.233c-3.08 8.91-6.893 15.81-15.57 20.267-4.264 1.735-7.28 2.625-11.841 2.634l-3.253.014h-3.586l-3.8.01q-5.23.014-10.463.017-5.637.007-11.276.022c-9.082.02-18.163.03-27.245.039l-12.83.015a62047 62047 0 0 1-56.496.046c-14.854.008-29.707.033-44.561.066q-22.875.049-45.75.054c-8.561.002-17.124.01-25.686.036q-10.939.034-21.877.02c-3.72-.004-7.44-.002-11.159.017-4.036.021-8.072.01-12.109-.002l-3.546.033c-9.88-.078-17.133-2.724-24.416-9.455C82.77 498.43 80.415 492.923 79 487l-2.427-.028c-3.671-.054-7.34-.138-11.01-.222l-3.819-.043c-9.762-.255-17.843-1.903-25.068-8.844-7.378-8.2-7.397-17.535-7.323-27.986q-.01-2.416-.027-4.833c-.022-4.349-.014-8.698.002-13.047.013-4.566.001-9.133-.007-13.699-.009-7.666.003-15.332.027-22.999.027-8.844.019-17.688-.009-26.533q-.034-11.42-.013-22.841c.008-4.539.01-9.077-.007-13.616q-.021-6.402.024-12.805.01-2.34-.006-4.68c-.065-9.961.611-18.324 7.623-25.958 7.37-7.176 14.732-8.208 24.696-8.13l3.844.077 3.938.04q4.78.054 9.562.147.014-13.458-.08-26.914c-.03-4.167-.047-8.333-.04-12.5.007-4.027-.016-8.053-.059-12.08q-.016-2.295-.001-4.59c.045-8.026.017-14.595-5.316-21.04-7.187-8.963-7.809-22.36-7.779-33.345l-.015-2.976c-.014-3.209-.013-6.417-.01-9.625l-.014-6.75a5208 5208 0 0 1-.002-14.095c.006-6.006-.01-12.012-.034-18.018-.015-4.64-.016-9.28-.013-13.919q0-3.32-.015-6.643c-.013-3.098-.006-6.196.006-9.295l-.023-2.74c.078-9.614 2.572-16.523 9.204-23.52 5.507-4.9 11.685-7.078 19-7.07l2.923-.004 3.187.01h3.371c3.68 0 7.359.009 11.038.016l7.65.005q9.042.005 18.084.021 10.294.016 20.59.022 21.174.016 42.348.05l-.063-2.196c-.085-3.351-.136-6.702-.187-10.054l-.102-3.453c-.117-10.377 1.762-20.288 8.524-28.484C220.327 2.736 229.766-.47 242.367-.434m-16.242 21.122-2.18 1.949C215.618 32.753 219 42.35 219 56h74c1.674-19.558 1.674-19.558-5.824-34.242l-1.863-1.633-1.825-1.68c-7.646-4.441-16.783-3.757-25.344-3.706-2.14.011-4.278 0-6.417-.012-13.815-.32-13.815-.32-25.602 5.96M85 76c-3.78 4.407-3.426 8.953-3.388 14.481l-.016 2.875c-.013 3.134-.005 6.268.006 9.402q-.003 3.279-.01 6.558-.005 6.878.017 13.754c.017 5.854.007 11.708-.01 17.562-.012 4.517-.008 9.035 0 13.553q.004 3.236-.008 6.47c-.043 17.094.781 32.505 13.159 45.658C106.46 217.177 116.986 219 133 219V72c-25.348-2.453-25.348-2.453-48 4m64-4v173h19V72zm35 0v147h144V72zm160 0v173h19l.076-7.647q.126-12.502.263-25.002.084-7.58.158-15.16.072-7.314.156-14.628.031-2.791.056-5.584.037-3.907.086-7.814l.017-2.337c.047-3.406.123-6.571 1.188-9.828 1.413-.25 2.83-.475 4.25-.687l2.39-.387c3.124.098 4.147.892 6.36 3.074.519 2.639.519 2.639.546 5.848l.06 3.64.003 3.93q.023 2.01.05 4.023c.044 3.526.064 7.052.08 10.579.019 3.6.06 7.199.1 10.798.076 7.06.126 14.121.161 21.182q3.304.063 6.61.098l3.717.055c12.124-.504 21.96-6.935 30.048-15.59 3.325-3.968 5.723-7.764 7.625-12.563l.806-2.017c3.367-10.168 2.647-20.925 2.628-31.503l.015-6.568q.013-6.855-.003-13.71c-.011-5.852.009-11.703.038-17.555.018-4.513.018-9.027.012-13.54q0-3.237.019-6.474c.015-3.014.004-6.025-.013-9.039l.029-2.687c-.065-5.46-.906-8.569-4.531-12.907-4.441-3.844-9.098-3.39-14.676-3.293l-2.803.013c-2.945.017-5.889.054-8.834.093q-3 .022-6.001.04-7.343.053-14.686.147l-.018 2.258q-.086 10.528-.218 21.056c-.044 3.608-.084 7.216-.11 10.825q-.04 5.223-.117 10.445a776 776 0 0 0-.045 5.928l-.06 3.64-.033 3.21C378 132 378 132 376.692 133.845c-2.814 1.92-5.402 1.448-8.692 1.154-3-2-3-2-4-5a122 122 0 0 1-.205-5.665l-.06-3.518-.051-3.797-.063-3.889q-.082-5.112-.153-10.224-.077-5.218-.161-10.436Q363.146 82.235 363 72zM95 227v217l49 1c3.123 3.123 3.602 3.825 4 8-.437 2.813-.437 2.813-1 5-3.008.864-5.735 1.148-8.86 1.205l-2.912.06-3.119.051-3.211.063q-5.074.097-10.148.183l-6.883.131q-8.433.161-16.867.307c-.087 4.042-.14 8.083-.187 12.125l-.077 3.46c-.128 8.142-.128 8.142 3.264 15.415 5.906 5.906 12.575 6.227 20.504 6.272l3.363-.011 3.612.011q4.944.012 9.888.004c3.56-.002 7.12.007 10.68.014q10.452.018 20.907.012 8.498-.002 16.997.005l2.445.001 4.918.004q23.05.014 46.103.003c14.051-.006 28.103.006 42.155.025q21.654.03 43.308.024c8.102-.002 16.204 0 24.305.014q10.345.019 20.692.002 5.276-.011 10.55.005c3.818.01 7.635.002 11.452-.01l3.35.022c6.658-.047 14.12-.206 19.392-4.814 3.788-4.348 4.505-7.747 4.477-13.345l-.01-3.388-.026-3.538-.013-3.572q-.018-4.37-.049-8.74l-3.8-.007a77258 77258 0 0 1-100.228-.255l-2.208-.007c-11.806-.036-23.61-.06-35.416-.081q-18.164-.033-36.328-.099-11.211-.04-22.424-.05c-5.727-.006-11.454-.028-17.182-.055a1569 1569 0 0 0-7.058-.011c-3.204.002-6.408-.015-9.612-.036l-2.841.014c-6.27-.069-6.27-.069-9.481-1.817-1.765-1.98-1.934-2.968-1.86-5.596l.004-2.062c.563-2.515 1.442-3.328 3.434-4.938 1.944-.379 1.944-.379 4.195-.385l2.605-.028 2.862.014 3.04-.02c3.376-.019 6.752-.016 10.129-.013l7.242-.031q7.81-.033 15.617-.04c7.527-.006 15.053-.029 22.58-.056q18.314-.063 36.632-.095 17.793-.03 35.588-.084l2.237-.006 19.271-.06c27.667-.084 55.335-.137 83.002-.196V227a401 401 0 0 0-14.316 5.098c-5.3 1.782-10.455 2.162-15.997 2.464l-2.244.131q-2.72.158-5.443.307v10l4.188 1.688c5.624 2.534 8.804 5.11 11.421 10.828 1.793 4.984 1.834 9.734 1.766 14.984l.035 2.723c-.029 6.585-.754 12.43-4.988 17.765l-1.672 1.325-1.64 1.363c-2.906 1.824-5.934 3.028-9.11 4.324l-.012 2.228a905 905 0 0 1-.175 10.147c-.01 1.734-.01 1.734-.018 3.504-.211 8.306-1.598 15.315-7.201 21.732-6.28 5.673-12.388 6.947-20.586 6.752-4.509-.544-8.07-2.188-12.008-4.363-1.08-.509-1.08-.509-2.184-1.027-2.43-1.302-2.784-2.426-3.816-4.973l-1.562-3.437c-1.903-4.716-2.565-8.591-2.368-13.653.704-10.494.704-10.494-3.441-19.476-2.904-1.487-2.904-1.487-5.953-2.485-3.963-1.406-4.875-3.265-6.676-6.949-1.645-4.934-1.268-10.02-1.312-15.187l-.088-3.37c-.054-6.993.628-11.507 4.4-17.443 3.556-3.556 7.389-5.192 12-7v-10H184v10l2.012.848c6.24 2.832 9.565 5.189 12.988 11.152 1.645 4.934 1.268 10.02 1.313 15.188l.087 3.369c.052 6.658-.325 11.983-4.4 17.443-2 1.805-2 1.805-4 2.875l-2 1.117a2016 2016 0 0 1-6 3.008l-.044 1.86c-.076 2.84-.172 5.677-.268 8.515l-.069 2.926c-.313 8.478-1.421 15.846-6.619 22.699v2l-1.75.867c-1.409.71-2.807 1.44-4.187 2.203-6.3 3.221-12.06 3.979-19.063 2.93-7.978-2.604-12.545-6.58-16.586-13.855-2.326-5.567-1.988-11.643-2.101-17.582l-.104-3.663q-.123-4.45-.209-8.9l-2.082-.99-2.73-1.326-2.708-1.303c-4.324-2.407-6.598-5.352-8.585-9.924-1.205-4.653-1.224-9.045-1.207-13.832l-.05-2.75c-.004-7.145 1.003-12.822 5.487-18.625 3.745-2.931 7.466-4.473 11.875-6.25v-10l-3.113-.113c-11.224-.496-20.892-2.184-31.11-7.117-1.76-.902-1.76-.902-3.777-.77m36 37a71 71 0 0 0-.375 8.5l-.035 2.34c-.06 4.185-.06 4.185 1.641 7.88 2.288 1.656 3.656 1.66 6.468 1.668l2.882.029 3.107-.019 3.194.01q3.344.002 6.687-.017c3.418-.016 6.834 0 10.251.02q3.246-.004 6.493-.013l3.106.019 2.882-.029 2.536-.007c2.653-.467 3.54-1.27 5.163-3.381.442-1.989.442-1.989.363-4.16l-.002-2.404-.048-2.498.01-2.51c.203-4.719.203-4.719-2.323-8.428-2.16-.313-2.16-.313-4.677-.275l-2.943-.029-3.189.003-3.265-.013q-3.424-.008-6.847-.002c-3.499.003-6.997-.02-10.495-.045q-3.32-.004-6.643-.002l-3.182-.028-2.952.019-2.6-.002c-2.73.463-3.61 1.13-5.207 3.374m196-1c-.444 2.959-.324 5.95-.312 8.938l-.05 2.498-.001 2.404-.01 2.199c.49 2.58 1.326 3.34 3.373 4.961 2.213.453 2.213.453 4.7.388l2.881.029 3.106-.019 3.195.01q3.343.002 6.687-.017c3.418-.016 6.834 0 10.251.02q3.246-.004 6.493-.013l3.106.019 2.882-.029 2.536-.007c2.697-.475 3.578-1.167 5.163-3.381a71 71 0 0 0 .375-8.5l.035-2.34c.058-4.183.058-4.183-1.634-7.88-2.322-1.673-3.735-1.654-6.583-1.652l-2.952-.02-3.182.029-3.269-.002q-3.42.004-6.842.029c-3.5.023-7 .02-10.5.014q-3.32.007-6.64.021l-3.188-.003-2.943.03-2.596.013c-2.302.072-2.302.072-4.081 2.261M48 301c-2.126 3.19-2.249 3.96-2.24 7.613l-.009 2.868.022 3.14v3.312c0 3.62.016 7.24.032 10.86l.008 7.52a7985 7985 0 0 0 .043 17.786c.025 7.412.035 14.823.046 22.235Q45.937 396.167 46 416h33V297c-22.735-2.311-22.735-2.311-31 4m385-4v119h33c.09-14.517.164-29.033.207-43.55.02-6.74.049-13.48.095-20.221.044-6.504.067-13.007.078-19.51q.01-3.725.043-7.448c.029-3.475.033-6.948.031-10.422l.044-3.12c-.025-4.332-.064-6.985-2.276-10.782C454.949 292.82 447.659 297 433 297m-284 3a920 920 0 0 0-.25 11.188l-.102 3.197c-.128 6.193-.128 6.193 2.243 11.79 2.477 2.144 3.608 2.757 6.859 3.2 4.582-.529 6.04-2.09 9.25-5.375 1.038-2.938 1.118-5.668 1.098-8.766l-.01-2.695-.025-2.789-.014-2.836q-.02-3.458-.049-6.914zm195 0q-.08 4.844-.125 9.688l-.05 2.763c-.045 6.035.03 10.344 4.425 14.861 3.323 2.04 4.916 2.327 8.75 1.688 2.7-1.8 4.542-3.084 6-6 .084-1.74.107-3.484.098-5.227l-.01-3.125-.026-3.273-.013-3.297q-.02-4.039-.049-8.078zM46 432l-.25 14.625-.11 4.58-.03 3.647-.064 3.713c.548 4.145 1.797 6.237 4.454 9.435 3.18 2.3 6.003 2.235 9.86 2.195l3.045-.015 3.845-.055L79 470v-38zm387 0v38l12.125.25 3.79.11c6.317.063 10.374.05 15.085-4.36 2.484-3.725 2.232-5.63 2.195-10.074l-.015-3.792-.055-4.822L466 432z" transform="translate(70, 60)"/>
<path d="m228.374 117.823 1.982-.02q3.25-.028 6.503-.041l2.245-.013q5.886-.03 11.77-.044c4.046-.011 8.092-.046 12.139-.085 3.115-.027 6.231-.035 9.347-.038q2.237-.008 4.473-.035c2.093-.025 4.183-.024 6.275-.017l3.602-.018c4.798.712 7.932 2.942 11.102 6.55 2.457 4.008 2.379 7.876 2.426 12.422l.025 2.224q.02 2.33.032 4.66.017 2.372.062 4.742c.043 2.292.059 4.582.069 6.874l.053 2.116c-.024 5.482-1.468 8.486-4.479 12.9-4.923 3.787-9.91 4.123-15.964 4.145l-3.57.02-3.833.003-3.964.01q-4.149.009-8.296.007c-3.53 0-7.059.014-10.588.031-3.384.014-6.768.013-10.152.014l-3.82.022c-14.19-.037-14.19-.037-19.626-4.627-3.919-4.703-4.496-8.19-4.488-14.242l-.013-2.227a717 717 0 0 1-.002-4.655 587 587 0 0 0-.045-7.083q-.004-2.268-.002-4.535l-.028-2.122c.043-4.654.95-7.807 3.391-11.761 4.663-4.208 7.156-5.125 13.374-5.177M228 134v24h56v-24z" transform="translate(70, 60)"/></svg>