<svg xmlns="http://www.w3.org/2000/svg" viewbox="0 0 630 630" fill="currentColor">
<path d="M343.314 27.723C348.218 31.437 352.604 35.71 357 40l1.95 1.762c21.401 19.805 31.016 51.321 32.191 79.638q.218 7.284.377 14.569c.114 7.126.114 7.126 1.56 14.058 1 3.227.856 5.008.235 8.286-.697 5.6.744 8.898 3.558 13.69C398 174 398 174 398 176l3.883-.875c26.98-5.88 26.98-5.88 37.152-.52 9.513 6.752 12.175 16.102 14.164 27.028l.594 3.164c.642 3.441 1.27 6.884 1.895 10.328l.66 3.606C469.651 291.489 482.875 368.733 477 443l-.167 2.224c-1.29 15.686-7.022 31.159-18.767 42.089-10.203 8.332-21.596 14.787-35.06 14.824l-2.988.015-3.262.002-3.483.013q-4.78.016-9.56.022-5.157.01-10.315.029-12.455.034-24.91.052l-7.042.011a49904 49904 0 0 1-56.454.071c-13.586.013-27.17.046-40.756.088q-20.946.063-41.892.071c-7.833.004-15.667.015-23.5.048-6.675.028-13.35.04-20.025.028q-5.1-.01-10.201.022c-21.68.134-38.25-1.824-54.805-17.171C93.545 464.106 93.113 430.753 91 403l-1.282 2.32q-2.396 4.334-4.797 8.666l-2.06 3.724C69.605 441.703 69.605 441.703 64 445c-4.652.93-7.792.65-11.996-1.613-3.354-2.665-5.448-5.48-7.566-9.137l-1.163-1.984C34.333 416.344 32.124 398.824 36 381c.812-2.566 1.65-5.036 2.617-7.54l.794-2.079c2.942-7.535 6.484-14.741 10.152-21.943l1.05-2.083A660 660 0 0 1 71 310l1.481-2.525C81.314 292.47 90.341 277.49 100 263c.457-2.41.819-4.76 1.113-7.191l.287-2.198q.305-2.355.601-4.71.473-3.724.968-7.445 1.189-8.968 2.353-17.939c.608-4.675 1.231-9.348 1.88-14.018q.294-2.16.57-4.323c1.272-9.997 2.994-19.32 10.478-26.613 6.943-5.294 14.25-6.042 22.75-5.563l-1.434-1.293c-10.236-9.677-20.497-22.99-21.128-37.582.244-4.727 1.33-7.543 4.562-11.125 5.046-4.411 10.628-6.793 16.736-9.429 1.872-.814 3.73-1.656 5.588-2.5 7.24-3.144 13.725-5.47 21.676-4.071 5.812 2.486 9.098 6.16 13 11l.196-1.674C181.672 104.095 183.621 92.541 188 81l.75-1.994c10.889-28.3 32.201-50.35 59.906-62.69 31.48-12.393 67.178-8.203 94.658 11.407M224.402 48.147C204.455 67.459 194.428 94.098 193.5 121.5c-.24 6.733-.538 13.419-1.187 20.125-.542 6.888.063 13.653 1.687 20.375l2 2c3.024-.155 4.545-.592 6.813-2.625 1.648-3.297 1.507-5.729 1.187-9.375a125 125 0 0 0-2-5c-4.568-25.48.869-54.314 15.275-75.912 13.84-19.553 32.3-31.882 55.85-36.4C294.215 31.763 315.516 36.752 333 49c20.356 15.998 33.206 38.518 36.684 64.273 2.202 25.945 2.202 25.945-4.371 36.415-1.889 3.326-1.85 5.554-1.313 9.312 1.917 3.083 1.917 3.083 5 5 4.032.637 6.017.698 9.375-1.687 1.867-2.658 2.474-4.068 2.625-7.313l-.96-2.797c-1.752-5.874-1.427-12.064-1.54-18.14C377.558 99.754 369.527 70.91 345 46c-34.98-32.987-86.336-29.8-120.598 2.147m10.493 20.587C224 81.764 216.87 96.194 214 113l-.395 2.172c-1.477 10.164-2.213 22.036 1.708 31.629 1.793 5.737 1.74 12.282-.297 17.926-2.146 4.066-4.205 6.65-8.016 9.273 1.347 2.934 2.886 5.25 5 7.688l1.563 1.824c6.752 6.99 30.015 4.413 39.667 4.61 49.296 1.714 49.296 1.714 97.77-5.122.56-2.56 1.098-5.121 1.625-7.687l.484-2.186c.9-4.48.907-6.904-1.109-11.127-1.06-7.793.19-13.699 3.809-20.625 6.575-13.108 1.233-32.567-2.996-45.5C348.434 84.295 341.7 74.73 333 66l-2.043-2.113C321.977 55.21 310.225 49.363 298 47l-3.5-.687c-22.436-2.004-44.116 5.856-59.605 22.421m-81.782 53.602-3.342 1.477-3.458 1.562-3.495 1.54c-5.84 2.385-5.84 2.385-10.818 6.085 0 10.84 7.844 19.805 15.05 27.18 7.125 7.509 7.125 7.509 16.282 10.804 3.788-1.397 7.065-3.413 10.48-5.546l2.1-1.288c1.7-1.043 3.395-2.096 5.088-3.15-.337-14.745-5.535-27.972-14.902-39.3-4.262-3.453-8.4-1.401-12.985.636m29.802 51.56-2.364 1.413-2.569 1.513-2.67 1.616-2.705 1.603Q169.295 182.006 166 184c1.313 2.913 2.712 4.945 5.004 7.164l1.744 1.711 1.815 1.75q1.786 1.735 3.566 3.477l1.596 1.541C181 201 181 201 182 203c5.105-.554 8.966-3.026 13.313-5.562l2.244-1.288q2.725-1.568 5.443-3.15c-.74-3.394-1.555-4.876-4.125-7.25-3.36-3.194-6.346-6.576-9.297-10.148-2.222-2.255-3.68-2.988-6.663-1.706M379 176c-2.374.071-4.75.084-7.125.063l-3.883-.028L365 176v5c6.366-.491 12.693-.997 19-2l-1-4c-2.075-.15-2.075-.15-4 1m24.498 11.763c-4.595.833-9.197 1.63-13.799 2.425l-2.786.48c-18.907 3.236-37.934 5.356-57.038 7.02l-2.11.184c-4.918.425-9.84.797-14.765 1.128l-2.252.152c-16.454 1.058-32.916.969-49.394.917q-5.492-.014-10.985-.02-10.685-.016-21.369-.049c2.824 2.848 5.621 5.555 8.75 8.063 13.475 11.752 28.47 36.02 30.523 54.382.269 7.084-.85 12.858-5.273 18.555-5.541 4.57-11.65 7.356-18.187 10.25l-2.983 1.352c-6.576 2.95-11.311 4.533-18.58 4.46l-3.547-.027L217 297c-1.122 2.245-1.213 3.69-1.366 6.186l-.17 2.66-.172 2.925-.193 3.075q-.207 3.313-.41 6.628-.322 5.245-.657 10.49c-.634 9.943-1.261 19.887-1.87 29.832a5353 5353 0 0 1-1.151 18.234q-.221 3.475-.428 6.951a1608 1608 0 0 1-.616 9.73l-.16 2.901c-.355 5.118-.992 8.948-3.807 13.388-3.353 2.635-6.875 2.427-11 2-4.464-2.325-7.688-5.57-11.148-9.145-1.88-1.883-3.834-3.621-5.852-5.355-3.228-2.78-6.23-5.705-9.21-8.746-2.484-2.434-5.126-4.66-7.798-6.883-6.71-6.302-6.71-6.302-7.568-11.07l.107-3.711.055-2.16c.429-12.436 1.661-24.86 2.732-37.255q.721-8.376 1.421-16.753.245-2.886.499-5.772c.568-6.737.915-13.389.762-20.15-2.913 2.74-5.07 5.441-7.137 8.86l-1.734 2.853-1.816 3.037-1.903 3.158A757 757 0 0 0 132 328c-3.314 6.022-3.314 6.022-4.692 8.52a1799 1799 0 0 0-5.198 9.486c-3.12 5.72-6.274 11.353-9.81 16.83-7.14 11.174-9.938 19.178-8.566 32.44.283 2.901.441 5.793.582 8.704.652 12.06 2.1 23.974 3.997 35.895l.57 3.724c2.445 14.472 7.833 28.419 20.055 37.339 16.35 10.386 33.539 9.354 52.29 9.32l7.657.011c6.188.009 12.375.007 18.563.002q7.55-.007 15.099-.003h2.178l4.382.003q20.502.006 41.004-.012 17.555-.012 35.111.002a33028 33028 0 0 0 45.231.007l2.17-.001q7.53-.003 15.064.006 10.155.008 20.31-.01 3.716-.004 7.433.002c30.28.18 30.28.18 55.511-15.144 18.882-20.186 14.58-54.59 13.741-80.129-2.18-60.57-11.301-120.88-22.494-180.367l-.573-3.082c-.533-2.858-1.081-5.712-1.635-8.566l-.472-2.547c-1.106-5.57-2.735-9.442-6.57-13.742-8.16-4.688-20.622-.53-29.44 1.075m-278.549 3.616c-2.96 4.658-3.33 10.07-4.074 15.434l-.499 3.343A651 651 0 0 0 117 237c2.936-2.778 5.218-5.596 7.434-8.973l1.949-2.95 2.055-3.14 4.277-6.472 2.163-3.274c3.165-4.76 6.387-9.48 9.622-14.191l1.69-2.461q1.902-2.771 3.81-5.539c-7.813-5.208-18.518-6.2-25.05 1.379M159 199c-1.276 1.45-1.276 1.45-2.523 3.394l-1.528 2.258-1.656 2.493-1.74 2.581a2298 2298 0 0 0-3.677 5.476c-2.423 3.613-4.868 7.211-7.313 10.81a5332 5332 0 0 0-7.385 10.914 5183 5183 0 0 1-3.748 5.54c-7.33 10.817-14.522 21.687-21.37 32.817-1.59 2.574-3.208 5.13-4.826 7.686-15.96 25.3-31.241 51.133-44.276 78.08a348 348 0 0 1-3.118 6.15c-8.022 15.828-11.23 30.905-5.758 48.227 2.272 5.792 5.05 10.711 8.918 15.574 3.976-4.508 6.58-9.538 9.375-14.812a683 683 0 0 1 13.563-24.063c5.278-8.962 10.319-18.025 15.235-27.19 4.23-7.873 8.6-15.658 13.02-23.425 3.188-5.61 6.31-11.25 9.375-16.928C135.178 295.66 152.495 267.128 175 243a657 657 0 0 0 3.938-4.437l1.652-1.872c2.548-3.056 3.41-4.294 3.414-8.378a243 243 0 0 0-.441-4.313l-.14-2.195c-.193-2.422-.193-2.422-1.423-5.805-2.883-1.519-2.883-1.519-5.037-2.163-3.851-1.642-6.462-5.011-9.275-8.024a749 749 0 0 0-3.676-3.856l-1.61-1.72c-1.34-1.458-1.34-1.458-3.402-1.237m41.188 9.438-1.811 1.025A353 353 0 0 0 194 212c2.647 25.458 5.845 52.441 24.5 71.563 3.307 1.901 5.818 2.043 9.5 1.437 4.195-1.432 8.173-3.254 12.188-5.125l3.271-1.437c7.91-3.483 7.91-3.483 12.541-10.438.39-6.475-1.93-12.115-4.625-17.875l-1.088-2.375c-7.92-16.93-20.133-34.915-38.287-41.75-4.807-1.706-7.661-.02-11.812 2.438M186 249a185 185 0 0 0-4.375 4.75l-2.398 2.672L177 259l-1.59 1.822c-1.722 2.66-1.929 4.457-2.183 7.608l-.304 3.509-.298 3.936q-.172 2.091-.347 4.182a2359 2359 0 0 0-.795 9.88c-.462 5.845-.95 11.688-1.439 17.53q-.784 9.403-1.558 18.807l-.52 6.276c-.332 3.99-.655 7.982-.978 11.973l-.302 3.621c-1.755 12.393-1.755 12.393 1.22 23.872l2.594 2.234 2.77 2.473L176 379q2.096 1.842 4.188 3.688l1.94 1.656c2.484 2.198 4.765 4.565 7.036 6.98 2.416 2.206 5.106 3.882 7.836 5.676 1.77-18.826 3.051-37.68 4.287-56.547q.425-6.465.86-12.932.34-5.055.67-10.112.157-2.385.318-4.768c.48-7.132.93-14.266 1.097-21.414l.066-2.748c-.46-3.828-2.367-6.289-4.653-9.303-6.622-8.761-9.373-19.855-12.645-30.176z" transform="translate(50, 60)"/>
<path d="m372.775 435.694 3.52-.049 3.79-.016c1.29-.01 2.58-.018 3.909-.027q4.093-.024 8.186-.028c3.486-.005 6.97-.043 10.457-.088 3.337-.037 6.674-.039 10.011-.045l3.78-.059c9.654.05 9.654.05 13.344 2.965 3.541 4.217 3.414 7.602 3.478 12.965l.078 3.926c-.35 4.017-1.185 6.371-3.328 9.762-3.453 2.302-4.789 2.261-8.86 2.29l-3.652.04-3.949.006-4.054.02q-4.25.017-8.499.015c-3.624 0-7.247.027-10.87.061-2.792.022-5.584.026-8.375.025a640 640 0 0 0-5.951.047l-3.67-.018-3.223.008c-3.612-.616-5.28-1.98-7.897-4.494-1.682-3.363-1.227-7.118-1.25-10.813l-.062-2.447c-.031-4.712.137-7.986 3.312-11.74 3.275-2.079 5.935-2.266 9.775-2.306M373 449v5h47v-5z" transform="translate(50, 60)"/></svg>