<svg version="1.1" xmlns="http://www.w3.org/2000/svg" viewBox="0 0 512 497" class="icon icon-hamburger" fill="currentColor">
<path d="M0 0 C0.70086117 -0.00235223 1.40172235 -0.00470446 2.12382174 -0.00712797 C4.47800258 -0.01379775 6.83212796 -0.01336036 9.18631744 -0.01294994 C10.88903592 -0.01624983 12.59175361 -0.01997566 14.29447031 -0.02409142 C18.97832832 -0.03410539 23.66217352 -0.03782725 28.34604073 -0.04048073 C33.39601561 -0.04438558 38.44598037 -0.05396382 43.49594879 -0.0626936 C55.69425465 -0.08245313 67.89256134 -0.09252368 80.0908792 -0.10142139 C85.8362596 -0.10580522 91.58163907 -0.11117179 97.32701874 -0.11641026 C116.42776803 -0.1334222 135.52851675 -0.14791611 154.62927246 -0.155159 C159.58566539 -0.15706887 164.54205832 -0.15898921 169.49845123 -0.16094494 C170.73032821 -0.16142868 171.96220518 -0.16191242 173.23141176 -0.16241082 C193.18450742 -0.17071013 213.13754311 -0.19604555 233.09061259 -0.22852562 C253.5790897 -0.26160513 274.06753634 -0.27960858 294.55604029 -0.28280324 C306.05830002 -0.28496753 317.5604723 -0.29370437 329.06270599 -0.31926441 C338.85910782 -0.34098358 348.65540096 -0.34901581 358.45182413 -0.33929763 C363.44786177 -0.33475647 368.4436752 -0.33662861 373.43968201 -0.35605907 C378.01947037 -0.37371651 382.5988714 -0.37267209 387.17866403 -0.35716178 C388.82947992 -0.35478963 390.48032281 -0.35908876 392.1310975 -0.37099043 C406.56068512 -0.46852327 418.57593058 1.67411167 429.95548248 11.13422108 C431.0015567 11.95986561 431.0015567 11.95986561 432.06876373 12.80218983 C441.99290658 21.5315815 447.29288485 35.29527135 448.16251373 48.20843983 C448.62977378 62.83194865 444.26548147 76.21622585 434.76798248 87.44672108 C425.50641514 97.12856122 414.02269133 102.75032631 400.60799158 103.26187158 C398.76205563 103.26374132 398.76205563 103.26374132 396.87882805 103.26564884 C396.18664368 103.26770148 395.49445931 103.26975411 394.78129965 103.27186894 C392.46266411 103.27752186 390.14408829 103.27608381 387.82544708 103.27466297 C386.14590182 103.27724759 384.46635718 103.28026102 382.78681338 103.28366637 C378.17169164 103.2917283 373.55658546 103.2935255 368.94145751 103.29426384 C363.9637776 103.2961158 358.98610573 103.30366387 354.00843048 103.31039906 C343.12403076 103.32397721 332.23963473 103.3300063 321.35522795 103.33440971 C314.55789201 103.33717303 307.76055748 103.34141055 300.9632225 103.34591389 C282.14036842 103.35810592 263.31751547 103.36840534 244.49465752 103.37178898 C243.2901016 103.37200854 242.08554568 103.37222811 240.84448806 103.37245433 C239.03335106 103.37278175 239.03335106 103.37278175 237.18562543 103.37311578 C234.73895669 103.37355924 232.29228795 103.37400581 229.8456192 103.37445545 C228.63198911 103.37467688 227.41835902 103.37489831 226.16795225 103.37512645 C206.50524988 103.379074 186.84258458 103.39652701 167.17989652 103.41981497 C146.98858557 103.44353583 126.79729322 103.45599117 106.60596812 103.4571569 C95.27088758 103.45807325 83.93585534 103.46381552 72.60078812 103.48197651 C62.94822266 103.49738739 53.29572043 103.50249211 43.64314501 103.49423841 C38.72017126 103.49033541 33.7973248 103.49124443 28.87436676 103.50529575 C24.36257286 103.51805551 19.85100165 103.51681895 15.33920796 103.50470504 C13.71199536 103.50275164 12.08476687 103.5058099 10.45757656 103.5145494 C-6.09527076 103.59778378 -20.72766908 100.80279661 -33.20467377 89.09125233 C-43.56791885 78.06792793 -48.42828188 64.08240106 -48.18514252 49.04828358 C-47.46375715 34.09957571 -41.10590575 21.22727229 -30.04451752 11.13422108 C-20.98260909 3.89096556 -11.60176977 0.0166179 0 0 Z " fill="currentColor" transform="translate(55.044517517089844,195.86577892303467)"/>
<path d="M0 0 C1.71599873 -0.00417706 3.4319947 -0.00965662 5.14798558 -0.01631981 C9.84533484 -0.03074429 14.5425082 -0.02653907 19.23986697 -0.019153 C24.31292275 -0.01441621 29.38594076 -0.02693571 34.45898438 -0.03717041 C44.3905122 -0.05435374 54.32197675 -0.05519937 64.25351559 -0.04995751 C72.32717045 -0.04591369 80.40080663 -0.04736189 88.4744606 -0.05270576 C89.6241913 -0.05345419 90.77392201 -0.05420261 91.95849303 -0.05497371 C94.29428092 -0.05650521 96.63006881 -0.05804356 98.96585669 -0.05958868 C120.86329584 -0.07331205 142.76069924 -0.06787718 164.65813757 -0.05640347 C184.68272956 -0.0464714 204.70722913 -0.05941162 224.73180686 -0.08333766 C245.30293675 -0.10773118 265.8740236 -0.11733589 286.44516766 -0.11068493 C297.99034698 -0.10719326 309.53545525 -0.10942137 321.08062363 -0.12693596 C330.90878497 -0.14166106 340.73682521 -0.14228927 350.56498419 -0.12486505 C355.57712567 -0.11635527 360.58905085 -0.11420508 365.60118103 -0.1295166 C370.19430116 -0.14337413 374.78701987 -0.13858678 379.38011684 -0.11927737 C381.03681608 -0.11552033 382.69354755 -0.11843074 384.35021804 -0.12888902 C397.99255111 -0.20884951 409.03636395 1.90486113 420.0852356 10.38768005 C421.30726685 11.28486755 421.30726685 11.28486755 422.5539856 12.20018005 C432.01520755 20.37654471 437.09251952 32.26532395 439.0852356 44.38768005 C440.13863287 60.61404956 436.48840605 75.1896803 425.8352356 87.76268005 C416.10701374 97.93087175 403.43340719 103.01745246 389.51729715 103.51533055 C388.30066782 103.51657705 387.08403849 103.51782355 385.83054161 103.51910782 C385.14340224 103.52116045 384.45626287 103.52321309 383.74830109 103.52532792 C381.45885059 103.5309568 379.16946103 103.5295458 376.88000488 103.52812195 C375.21665809 103.53070794 373.55331192 103.53372175 371.88996661 103.53712535 C367.32883105 103.54517099 362.76771125 103.54698356 358.20656943 103.54772282 C353.28341995 103.54957761 348.36027857 103.55712705 343.43713379 103.56385803 C332.67668122 103.57742423 321.91623238 103.58346331 311.15577269 103.58786869 C304.43378972 103.59063383 297.7118082 103.59487166 290.9898262 103.59937286 C272.36934436 103.61156295 253.74886366 103.621863 235.12837791 103.62524796 C233.34170975 103.6255773 233.34170975 103.6255773 231.51894728 103.62591331 C229.72807065 103.62624072 229.72807065 103.62624072 227.90101469 103.62657475 C225.48179014 103.62701822 223.0625656 103.62746478 220.64334106 103.62791443 C219.44332905 103.62813586 218.24331705 103.62835729 217.00694104 103.62858543 C197.56557864 103.63253286 178.12425375 103.64998638 158.68290584 103.67327395 C138.71074431 103.69700377 118.73860158 103.70945054 98.76642573 103.71061587 C87.55762541 103.71153168 76.34887396 103.71726025 65.14008713 103.73543549 C55.59522467 103.75085842 46.0504262 103.75594396 36.50555365 103.74769738 C31.63902508 103.74379876 26.77262528 103.74468197 21.90611267 103.75875473 C17.44363782 103.7715407 12.98138786 103.77025515 8.51891311 103.75816402 C6.91191296 103.75621514 5.30489662 103.75924769 3.69791918 103.76800838 C-13.34310778 103.85496484 -29.08284701 101.55802895 -42.00460815 89.4853363 C-52.58891456 77.86207958 -57.33289355 64.17366758 -57.12179565 48.59080505 C-56.20677636 34.43390282 -49.93586271 21.10501949 -39.52023315 11.5087738 C-27.21907434 1.49448709 -15.3689004 -0.06097901 0 0 Z " fill="currentColor" transform="translate(63.914764404296875,356.61231994628906)"/>
<path d="M0 0 C1.05010738 -0.00307895 1.05010738 -0.00307895 2.12142906 -0.0062201 C4.47289651 -0.01188532 6.82430531 -0.01043344 9.17577839 -0.00901413 C10.87650997 -0.01159804 12.57724095 -0.01461127 14.27797109 -0.01801753 C18.95622123 -0.02608774 23.63445603 -0.02787711 28.31271231 -0.028615 C33.35649345 -0.03046551 38.40026662 -0.03801283 43.44404316 -0.04475021 C54.47505736 -0.05833415 65.50606793 -0.06435833 76.53708911 -0.06876087 C83.42435677 -0.07152315 90.31162302 -0.07576048 97.19888973 -0.08026505 C116.26619059 -0.09245772 135.33349031 -0.10275708 154.40079498 -0.10614014 C155.6212272 -0.1063597 156.84165943 -0.10657927 158.09907444 -0.10680549 C159.32243287 -0.10702377 160.54579129 -0.10724204 161.80622119 -0.10746694 C164.28522662 -0.1079104 166.76423206 -0.10835697 169.2432375 -0.10880661 C171.08774743 -0.10913875 171.08774743 -0.10913875 172.96952019 -0.10947761 C192.89553136 -0.11342579 212.82150596 -0.13088046 232.747503 -0.15416613 C253.20319552 -0.17787795 273.65886968 -0.19034191 294.11457616 -0.19150805 C305.6005142 -0.1924249 317.0864046 -0.19817971 328.57232952 -0.21632767 C338.3527025 -0.23172632 348.13301311 -0.23685048 357.9133959 -0.22858956 C362.90294805 -0.22468227 367.89237458 -0.22561662 372.88191128 -0.23964691 C377.4522363 -0.25238082 382.02234125 -0.25119274 386.59266595 -0.2390562 C388.24342583 -0.23709833 389.89420128 -0.2401818 391.5449393 -0.24890056 C407.25222641 -0.32659008 420.18616713 2.60503204 432.15021992 13.50642776 C442.96861412 24.92871957 447.51758942 39.34518173 447.20881367 54.83845901 C446.12321877 69.3647526 439.73709357 82.35499453 428.96271992 92.13142776 C419.21540926 99.58608094 409.22392998 103.25051884 396.97508526 103.26285553 C396.28037839 103.26490816 395.58567152 103.2669608 394.86991292 103.26907563 C392.53668485 103.27474042 390.20351591 103.27328903 387.87028217 103.27186966 C386.18263768 103.2744536 384.49499379 103.27746684 382.80735075 103.28087306 C378.16523592 103.28894301 373.52313655 103.29073263 368.88101554 103.29147053 C363.87607041 103.2933211 358.87113331 103.30086848 353.86619282 103.30760574 C342.91981952 103.32118978 331.97344989 103.32721396 321.02706957 103.3316164 C314.19205714 103.33437883 307.35704612 103.33861619 300.52203465 103.34312057 C281.59799444 103.35531357 262.67395536 103.36561267 243.74991131 103.36899567 C241.93299457 103.36932502 241.93299457 103.36932502 240.07937244 103.36966102 C238.86519432 103.3698793 237.6510162 103.37009757 236.4000448 103.37032247 C233.93965395 103.37076593 231.47926311 103.3712125 229.01887226 103.37166214 C227.18821356 103.37199428 227.18821356 103.37199428 225.32057185 103.37233314 C205.54719949 103.37628075 185.77386398 103.39373351 166.00050585 103.41702166 C145.6996202 103.44073811 125.39875304 103.45319766 105.0978533 103.45436358 C93.69963265 103.4552802 82.30146002 103.46102921 70.9032526 103.4791832 C61.19683564 103.49458815 51.49048154 103.49970231 41.78405468 103.49144509 C36.83285833 103.48753995 31.88178855 103.48846163 26.9306078 103.50250244 C22.39415437 103.51524934 17.85792254 103.51403687 13.32146938 103.50191173 C11.68415055 103.4999561 10.04681597 103.50302695 8.40951924 103.51175609 C-8.17490281 103.59454594 -22.29047217 100.55310607 -34.64665508 88.76033401 C-44.43042795 78.00138117 -50.06662254 63.71503843 -49.42399883 49.04549026 C-47.27760396 32.87164611 -41.69349832 19.84675862 -28.80681133 9.30720901 C-19.96436992 3.09402452 -10.77290994 0.01076618 0 0 Z " fill="currentColor" transform="translate(56.03728008270264,34.86857223510742)"/>
</svg>
