<?xml version="1.0" encoding="utf-8"?>
<svg version="1.1" x="0px" y="0px" viewBox="3.133 32.268 94.256 37.072" style="enable-background:new 0 0 100 100;" xmlns="http://www.w3.org/2000/svg">
  <defs/>
  <style type="text/css">
	.st0{fill:#1D1D1B;}
</style>
  <g>
    <path d="M89.8,35.4H10.2c-2.7,0-4.9,2.2-4.9,4.9v19.6c0,2.7,2.2,4.9,4.9,4.9h79.6c2.7,0,4.9-2.2,4.9-4.9V40.2   C94.7,37.5,92.5,35.4,89.8,35.4z M91.9,59.8c0,1.1-0.9,2.1-2.1,2.1H10.2c-1.1,0-2.1-0.9-2.1-2.1V40.2c0-1.1,0.9-2.1,2.1-2.1h7.6v8   h2.8v-8h9.6v8H33v-8h9.6v8h2.8v-8h9.6v8h2.8v-8h9.6v8h2.8v-8h9.6v8h2.8v-8h7.3c1.1,0,2.1,0.9,2.1,2.1V59.8z"/>
  </g>
</svg>