<svg xmlns="http://www.w3.org/2000/svg" viewbox="0 0 630 630" fill="currentColor">
<path d="m293.375 7.5 1.932.862c2.587 1.246 4.434 2.275 6.119 4.634 1.093 3.815.401 7.496-1.488 10.942-3.293 1.805-6.351 1.71-9.938 1.062-2.764-1.107-5.405-2.388-8.082-3.691-16.133-7.236-34.719-6.504-51.09-.485-16.835 7-29.573 19.479-37.473 35.89C191.038 62.334 189.481 68.11 188 74a949 949 0 0 0 4.75-1.375l2.672-.773c3.45-1.102 3.45-1.102 6.578-2.852 1.324-2.549 1.324-2.549 2.313-5.562C206.696 57.355 209.655 52.843 214 48l1.875-2.121c10.524-11.225 24.448-16.536 39.688-17.129 16.592.252 29.926 6.574 41.437 18.25l1.742 1.71c5.135 5.455 8.487 12.537 11.086 19.513 1.732 2.626 3.731 3.052 6.672 4.027l2.969 1.016c2.412.827 2.412.827 4.531.734-3.679-15.584-3.679-15.584-12-29-.699-7.105-.699-7.105 2-10.562 3.146-1.508 5.475-2.144 8.953-1.477C331.047 37.07 335.15 51 338 59c2.402 8.362 3.479 16.312 3 25l2.145.773C356.26 90.407 367.673 101.37 378 111l2.395 2.195c29.743 28.35 48.746 71.775 49.78 112.827.08 5.628.05 11.256.02 16.884l-.008 6.187a5887 5887 0 0 1-.05 16.117c-.02 5.504-.03 11.008-.04 16.513-.02 10.759-.055 21.518-.097 32.277l3.086-.073 4.066-.056 2.027-.052c7.201-.073 12.214 2.098 17.622 6.72 7.708 8.071 8.805 17.851 8.73 28.547l.012 3.695q.004 3.84-.022 7.68c-.021 3.923 0 7.846.026 11.77q-.004 3.74-.016 7.48l.025 3.554c-.02 1.633-.02 1.633-.038 3.299l-.01 2.896c-.654 3.272-1.95 4.468-4.508 6.54-2 .566-2 .566-4 .563l-2 .066c-3.37-1.06-4.276-2.562-6-5.629-.478-3.62-.377-7.17-.25-10.812l.055-2.967c.047-2.408.118-4.814.195-7.221h-19v86c10.81-.938 10.81-.938 17-7 1.33-2.659 1.144-4.733 1.176-7.707l.072-3.467q.064-3.621.094-7.242l.084-3.479.044-3.182c.655-3.61 2.002-5.312 4.53-7.923 2-.629 2-.629 4-.562l2-.004c2.929.83 4.097 2.209 6 4.566.518 2.958.518 2.958.531 6.383l.016 3.789-.047 3.953c.015 1.281.03 2.563.047 3.883-.041 10.023-1.606 18.976-8.746 26.453-8.23 7.034-16.43 7.161-26.801 6.539l.105 2.965c.233 11.254-.729 19.07-8.078 27.957-6.273 6.43-13.364 10.114-22.391 10.335q-3.301.02-6.603.01l-3.682.014q-5.048.014-10.095.01c-3.632 0-7.264.01-10.896.02a9801 9801 0 0 1-21.34.023q-8.675.001-17.35.012-24.608.026-49.214.025h-5.361c-14.342-.001-28.684.018-43.026.046q-22.1.043-44.2.04c-8.27 0-16.538.006-24.807.027q-10.56.029-21.123.009c-3.59-.006-7.18-.007-10.77.01-3.898.02-7.796.007-11.694-.009l-3.413.032c-10.012-.088-17.977-2.673-25.308-9.604-6.697-7.338-9.055-14.912-8.879-24.86l.027-2.072c.024-1.663.06-3.327.098-4.99l-2.93.176c-9.415.326-16.471-.39-23.87-6.715-7.191-7.53-8.798-16.771-8.718-26.81l-.02-3.296c-.018-3.567-.007-7.132.007-10.699l-.012-7.485c-.006-5.885.007-11.77.029-17.654.015-4.678.01-9.355-.007-14.033q-.035-9.714-.014-19.428.004-3.69-.01-7.377c-.01-3.444.005-6.886.027-10.33l-.024-3.045c.106-8.9 2.466-17.194 8.741-23.765 6.1-5.213 11.67-6.874 19.649-6.668l2.092.028c1.687.024 3.373.061 5.06.101l-.063-3.517c-.073-4.308-.119-8.617-.157-12.926q-.03-2.796-.082-5.593a697 697 0 0 1-.089-8.042l-.062-2.523c-.002-5.8-.002-5.8 2.356-8.902 2.202-1.572 3.401-2.334 6.097-2.497 2.797.75 4.537 1.555 6.63 3.564 1.965 3.493 1.78 6.82 1.742 10.722l.011 2.554c.01 2.83-.002 5.66-.014 8.49q.003 3.04.011 6.08.013 6.552 0 13.104c-.011 6.908 0 13.817.017 20.725.036 17.162.042 34.325.04 51.488-.002 13.33.005 26.662.04 39.993q.024 10.298-.001 20.596c-.006 4.276.005 8.552.02 12.827q.005 2.97-.01 5.94a720 720 0 0 0 .015 8.123l-.03 2.362c.072 5.473 1.326 9.925 4.529 14.432 5.032 4.15 10.651 5.122 16.994 5.131l2.99.012 3.263-.003 3.483.01q4.78.01 9.56.01c3.438.002 6.876.01 10.315.016q11.274.02 22.55.024 7.042.005 14.084.012a57601 57601 0 0 0 39.01.026h5.048l5.07.002h2.54q20.369.009 40.738.046 20.922.035 41.844.037 11.744-.001 23.487.025 10 .023 20 .012 5.1-.008 10.199.011c3.69.013 7.38.007 11.07-.004l3.236.025c7.65-.05 14.372-.848 20.457-5.767 4.505-5.734 4.35-10.938 4.323-17.962l.011-3.188c.01-3.53.007-7.062.003-10.592l.015-7.59q.017-9.248.012-18.497-.002-7.53.005-15.059l.001-2.167.004-4.36q.014-20.452.003-40.904c-.006-12.435.006-24.869.025-37.303q.03-19.188.024-38.376c-.002-7.171 0-14.343.014-21.514.014-6.76.01-13.519-.002-20.278q-.004-3.7.009-7.4C413.532 198.128 399.366 158.85 367 124c-.55-.605-1.1-1.21-1.668-1.832-26.475-27.914-67.55-42.99-105.445-44.164-41.799-.475-82.82 14.762-112.903 44.012Q145.488 123.504 144 125l-1.443 1.436c-8.013 8.056-14.444 17.01-20.557 26.564l-1.129 1.74c-15.746 24.6-22.234 54.764-22.317 83.658-.077 4.302-.173 6.935-2.34 10.727-2.334 1.977-3.207 2.537-6.214 2.438l-2 .003c-2.893-.819-4.095-2.269-6-4.566-.502-2.508-.502-2.508-.496-5.34l-.01-3.188.069-3.41.044-3.53C82.577 186.32 100.827 145.364 132 113l2.09-2.281C143.847 100.38 156.445 90.73 169 84h2l-.14-1.809C170.052 62.8 178.364 45.06 190 30l2.25-3.062C217.14-1.657 259.885-7.447 293.375 7.5m-67.816 51.57c-1.538 1.904-2.505 3.734-3.559 5.93l2.613-.429c9.685-1.454 19.144-1.882 28.93-1.832 2.455.011 4.909 0 7.363-.012 9.868-.008 19.35.674 29.094 2.273-6.61-10.004-13.728-16.359-25.625-19.312-15.1-2.782-28.216 2.407-38.816 13.382M66.188 333.5c-3.723 4.254-3.307 7.708-3.25 13.125L63 355h19v-26c-8.81-.065-8.81-.065-15.812 4.5M430 329v26h19l.25-8.125.11-2.524c.078-5.255-.856-8.205-4.36-12.351-5.124-3.416-8.688-3-15-3M63 370c-.09 9.936-.164 19.872-.207 29.808-.021 4.614-.05 9.228-.095 13.841a1794 1794 0 0 0-.078 13.364 607 607 0 0 1-.043 5.093c-.03 2.382-.033 4.762-.031 7.144l-.044 2.117c.042 4.99 1.364 7.8 4.498 11.633 5.124 3.416 8.688 3 15 3v-86z" transform="translate(70, 60)"/>
<path d="m149.121 318.853 2.864-.011q4.77-.015 9.541-.019l6.825-.02q9.285-.025 18.57-.036 5.8-.007 11.597-.018a35707 35707 0 0 1 40.445-.044l2.092-.002c11.182-.008 22.364-.033 33.546-.066q17.223-.049 34.447-.054c6.446-.002 12.892-.011 19.338-.036q9.096-.035 18.192-.018 3.338 0 6.677-.02c3.039-.017 6.077-.01 9.116.003l2.667-.033c5.81.06 9.198 1.142 13.962 4.521 3.578 4.614 5.119 8.109 5.147 13.9l.022 3.063.008 3.358.02 3.539c.02 3.873.031 7.747.041 11.62l.013 4.007q.029 9.415.041 18.831.015 10.851.077 21.703.044 8.397.048 16.795.002 5.01.036 10.021c.025 3.732.024 7.463.017 11.195l.039 3.327c-.05 7.312-.856 12.784-6.002 18.217-6.413 5.003-14.51 4.119-22.223 4.055q-2.385.008-4.772.022c-4.302.018-8.602.005-12.904-.014-4.506-.017-9.013-.008-13.52-.003a5280 5280 0 0 1-22.686-.04c-8.743-.031-17.486-.031-26.23-.014-8.417.016-16.833.01-25.25-.008q-5.371-.01-10.742.002-6.318.01-12.637-.032a510 510 0 0 0-4.639 0c-2.11.009-4.217-.007-6.327-.03l-3.577-.008c-3.637-.613-4.825-1.57-7-4.506-.553-3.871-.746-6 1.631-9.187 3.091-2.366 4.895-2.317 8.766-2.325l3.99-.038 4.372.02q2.303-.01 4.607-.026c4.17-.024 8.338-.023 12.508-.019 4.358.001 8.716-.022 13.075-.042 8.254-.036 16.508-.052 24.762-.06 12.13-.013 24.26-.051 36.39-.094l2.69-.01 5.308-.019q7.795-.027 15.59-.034 4.836-.006 9.672-.02 2.251-.005 4.503-.003 3.06 0 6.12-.012l3.468-.004c2.483.162 2.483.162 3.548-1.127a67 67 0 0 0 .127-4.403l.009-2.881-.007-3.187.006-3.335q.004-5.488-.002-10.975l.003-7.59q.002-7.964-.006-15.928-.007-9.22.002-18.44.007-8.855.002-17.708 0-3.776.002-7.55.003-5.267-.007-10.532l.007-3.187-.009-2.88-.001-2.519c.08-1.898.08-1.898-1.126-2.885-2.857-.098-5.69-.13-8.548-.12l-2.75-.003c-3.065-.002-6.13.004-9.194.01l-6.562-.001q-8.938.001-17.876.013-9.328.007-18.658.008-15.667.004-31.336.018-16.141.014-32.282.02h-2.03l-17.472.007c-25.098.01-50.195.03-75.292.048v115l39 1c3.332 3.332 3.817 4.414 4 9-1.138 2.327-2.168 4.168-4 6-6 .294-12.002.314-18.008.35a563 563 0 0 0-6.072.082c-2.923.055-5.844.077-8.768.091l-2.715.07c-5.369-.019-9.06-.951-13.653-3.736-6.09-6.34-6.364-13.325-6.302-21.746l-.02-3.54c-.018-3.847-.007-7.693.007-11.54l-.012-8.047q-.01-8.422.022-16.845c.021-6.476.014-12.95-.008-19.427q-.026-8.365-.01-16.732.01-4.984-.006-9.97c-.01-3.707.005-7.414.027-11.121l-.024-3.304c.07-6.36.818-11.303 4.542-16.585 5.377-5.114 9.997-5.149 17.121-5.147M287 98c.723.15 1.446.3 2.19.456 24.915 5.381 46.006 18.82 64.81 35.544l1.984 1.762c25.112 23.737 38.747 58.685 40.954 92.676l.174 2.383c.212 4.622-.146 7.56-3.112 11.179-3.347 1.674-5.098 2.226-8.75 1.313C383 242 383 242 381 239c-.423-2.426-.423-2.426-.676-5.312l-.311-3.231-.325-3.457c-3.57-33.508-17.165-63.595-43.043-85.887-27.667-22.109-60.91-32.44-96.344-28.687C216.49 115.588 194.23 125.469 176 141l-1.558 1.304c-26.567 22.434-39.256 53.858-42.316 87.913l-.317 3.267-.257 2.93c-.624 2.924-1.521 4.413-3.552 6.586-2.936 1.082-4.58 1.1-7.625.375-3.08-1.783-3.892-3.129-5.375-6.375-.162-2.97-.153-5.62.063-8.562l.163-2.513C118.09 188.708 134.804 155.365 162 130c2.453-2.076 4.982-4.023 7.563-5.937l2.105-1.566c6.492-4.745 13.186-8.791 20.332-12.497l1.775-.933C222.175 94.317 255.937 91.272 287 98" transform="translate(70, 60)"/>
<path d="M299 166c8.273 4.887 13.836 12.24 16.527 21.492 1.762 9.345.916 18.082-3.527 26.508-7.33 9.566-16.674 17.928-25.157 26.453q-2.545 2.562-5.077 5.137c-2.458 2.5-4.929 4.988-7.403 7.472l-2.273 2.327c-4.545 4.526-7.993 7.245-14.582 7.834-4.718-.317-7.769-.998-11.282-4.258l-2.084-1.918L242 255l-2.104-2.003a703 703 0 0 1-6.63-6.493l-2.426-2.401a4075 4075 0 0 1-5.032-5q-2.561-2.544-5.138-5.076a1605 1605 0 0 1-7.467-7.398l-2.314-2.26c-8.546-8.583-11.182-16.185-11.206-28.156.171-9.333 3.624-17.591 10.317-24.213 3.191-2.305 6.477-4.247 10-6l2.266-1.14c3.827-1.203 7.43-1.242 11.422-1.235h2.42c7.04.136 13.734 1.217 18.892 6.375 4.01-.482 7.175-2.727 10.586-4.746 10.432-5.419 23.23-5.04 33.414.746m-36.945 22.645c-2.889 1.905-4.657 1.841-8.055 1.355-2.457-1.645-2.457-1.645-4.812-3.812-5.123-4.318-9.604-7.25-16.47-7.157-6.26.944-10.593 4.28-14.718 8.969-2.004 3.149-2.297 5.668-2.312 9.375l-.051 2.773c.986 7.744 6.45 12.336 11.75 17.532l2.476 2.463c2.6 2.584 5.212 5.158 7.825 7.732q2.655 2.632 5.306 5.266Q249.486 239.58 256 246c3.175-1.406 5.338-3.077 7.803-5.512l2.214-2.176 2.362-2.355 2.45-2.43q2.562-2.547 5.116-5.101c2.6-2.597 5.217-5.177 7.834-7.756q2.49-2.48 4.975-4.963l2.367-2.324c5.38-5.425 8.452-9.54 9.317-17.32-.25-5.857-2.74-10.45-6.938-14.438-12.447-8.09-22.039-2.447-31.445 7.02M170.402 358.619l2.303-.014c2.554-.012 5.108-.003 7.662.007q2.742-.007 5.484-.016c4.971-.014 9.942-.008 14.913.001 5.196.008 10.391 0 15.587-.004q13.089-.007 26.178.016c10.097.016 20.194.01 30.29-.006q12.99-.02 25.98-.007 7.765.008 15.53-.005 7.297-.013 14.596.015 2.683.006 5.366-.004c2.436-.008 4.871.002 7.307.017l2.16-.02c2.892.034 4.79.077 7.18 1.79 1.404 2.129 1.462 3.574 1.437 6.111l.023 2.344C352 371 352 371 350.832 372.77c-2.571 1.727-4.455 1.526-7.52 1.418l-3.011-.083L338 374l.048 1.697c.062 2.538.101 5.076.14 7.616l.076 2.67.029 2.568.048 2.364c-.429 2.622-1.263 3.482-3.341 5.085-2.156.398-2.156.398-4.5.375l-2.344.023c-2.71-.5-3.462-1.252-5.156-3.398-.34-2.085-.34-2.085-.293-4.45l.03-2.568.075-2.67.042-2.705q.053-3.304.146-6.607l-2.49.008q-29.97.1-59.939.147c-9.662.016-19.323.037-28.985.071q-12.63.046-25.258.056c-4.46.004-8.92.013-13.38.035q-6.293.03-12.584.022-2.313.001-4.626.019c-2.101.014-4.202.011-6.303.003l-3.567.008C163 374 163 374 161.123 372.612c-1.482-2.127-1.524-3.536-1.498-6.112l-.023-2.344c1.092-5.914 5.719-5.585 10.8-5.537" transform="translate(70, 60)"/></svg>