<svg id="Calque_1" data-name="Calque 1" xmlns="http://www.w3.org/2000/svg" viewBox="0 0 490 490" fill="currentColor"><defs><style>.cls-1{fill="currentColor";fill-rule:evenodd;}</style></defs><title>Panier - icon</title>
<path class="cls-1" d="M304.58,132.93a53.6,53.6,0,0,0-19.1,10.93c-4.72,4.25-11.09,13.7-12.77,19a19.31,19.31,0,0,1-1.88,4.46c-.39.42-4.94,1.89-10.13,3.27-12,3.19-31.1,12.5-42,20.49-21.57,15.87-38.62,39.21-46.88,64.18-5.83,17.62-6.29,22.13-6.81,67.53L164.57,365H130.78v46.32c0,51.86.06,52.41,6.87,59.43,5.27,5.43,10.29,7.52,19.38,8.05l7.75.46v4.32c0,12.26,5,21.77,14,26.84l5.5,3.08h275l5.5-3.08c9-5.08,14-14.58,14-26.86v-4.35l7.75-.39c8.85-.45,13.8-2.44,19-7.66,7.33-7.33,7.18-6.12,7.21-58.91l0-47.25h-34V329.61c0-19.47-.48-40.06-1-45.75-3.15-31.07-15.9-57.91-37.92-79.86C422.21,186.46,402,175.17,377,169c-2.47-.61-4.55-1.79-4.87-2.76-5.56-16.75-18.7-29.55-34.7-33.81-7.58-2-25.77-1.72-32.83.54m5.7,17.41c-6.66,2.2-9.9,4.28-14.55,9.33l-4.45,4.83,15.25.28c8.38.15,22.11.15,30.5,0l15.25-.28-5-5c-7.37-7.44-13-9.82-24-10.16-5.52-.17-10.55.23-13,1m-34.55,35.21a113.44,113.44,0,0,0-61.07,33.19c-11.75,12.3-19,24.16-24.79,40.64-6.18,17.53-6.09,15.74-6.09,128.75,0,101.54,0,102.9,2,104.87s3.33,2,136,2,134,0,136-2,2-3.33,2-104.87c0-111.7,0-110.81-5.6-127.67a113,113,0,0,0-87.16-75c-11.59-2-80-2-91.29.07M269,239.75l.27,30.75h105l.26-30.75.27-30.75H268.75l.26,30.75m18.77-.25V252h68V227h-68v12.5m-68.5,101.38c-4.63,2.15-7.92,5.44-9.44,9.44s-1.47,113.47,0,117.36a20.16,20.16,0,0,0,9.66,9.94c2.66,1.14,20.37,1.38,102.18,1.38,67.49,0,99.86-.34,101.78-1.06,3.45-1.31,8-5.52,9.91-9.14,1.16-2.23,1.41-12.55,1.41-59.5,0-63.66.33-60.59-7.35-66.73l-3.84-3.07-100.16-.24c-95.74-.23-100.33-.16-104.15,1.62m7.5,24.62V374h190V357h-190v8.5m-78,53.45c0,24,.35,35.74,1.14,37.45,1.3,2.87,5.45,4.6,11,4.6h3.85V384h-16V419m330,3.55V461h3.85c5.56,0,9.7-1.73,11-4.6.78-1.71,1.14-13.45,1.14-37.45V384h-16v38.5m-252,4V461h190V392h-190v34.5" transform="translate(-70, -80)"/></svg>