<svg version="1.1" xmlns="http://www.w3.org/2000/svg" viewBox="0 0 610 610" fill="currentColor">
<path d="M0 0 C0.77214844 0.6290625 1.54429687 1.258125 2.33984375 1.90625 C7.04956044 5.88374586 11.07517897 10.25571084 15 15 C15.63808594 15.75023437 16.27617187 16.50046875 16.93359375 17.2734375 C30.50835583 33.62665966 40.1776415 53.32033651 45 74 C45.16226074 74.67224609 45.32452148 75.34449219 45.49169922 76.03710938 C50.120141 96.00293669 49.75878098 118.09876831 45 138 C44.84966309 138.66902344 44.69932617 139.33804688 44.54443359 140.02734375 C38.50024341 166.18745246 24.04144799 188.45964274 5 207 C3.76948778 208.22781964 2.54040534 209.4570733 1.3125 210.6875 C-0.45833333 212.45833333 -2.22916667 214.22916667 -4 216 C-3.08226807 216.36013184 -3.08226807 216.36013184 -2.14599609 216.72753906 C24.40784111 227.23832996 48.32547174 240.28421687 70 259 C70.79148437 259.680625 71.58296875 260.36125 72.3984375 261.0625 C104.71895358 289.51292192 137.31583133 333.12143116 140.23828125 377.62890625 C140.54843961 394.0672991 135.78231858 407.59194867 124.4453125 419.76953125 C113.17236616 430.05204301 98.1806705 437.1137563 82.79602718 437.13142776 C81.53944992 437.13526891 80.28287266 437.13911005 78.98821729 437.1430676 C77.59630639 437.1422874 76.20439553 437.14140863 74.81248474 437.14044189 C73.33179286 437.1430263 71.85110168 437.14603967 70.37041146 437.1494453 C66.30030549 437.15750987 62.23021717 437.15930457 58.16010416 437.16004276 C53.77068699 437.16189429 49.38127895 437.1694422 44.99186707 437.17617798 C35.39249127 437.18975863 25.79311965 437.19578579 16.19373584 437.20018864 C10.19827419 437.20295188 4.20281415 437.20718942 -1.79264641 437.21169281 C-18.39623825 437.22388582 -34.9998288 437.23418462 -51.60342503 437.2375679 C-52.66607073 437.23778747 -53.72871643 437.23800703 -54.82356351 437.23823325 C-55.88873878 437.23845153 -56.95391404 437.23866981 -58.05136734 437.2388947 C-60.209782 437.23933817 -62.36819667 437.23978473 -64.52661133 437.24023438 C-66.13258046 437.24056652 -66.13258046 437.24056652 -67.7709934 437.24090537 C-85.11227866 437.24485185 -102.45352186 437.26230117 -119.79479087 437.2855939 C-137.60400422 437.30932179 -155.41319647 437.32177043 -173.22242588 437.32293582 C-183.21948502 437.32385184 -193.21648937 437.32958578 -203.2135334 437.34775543 C-211.72793383 437.36317591 -220.24226255 437.36826544 -228.7566743 437.36001733 C-233.09839601 437.35611754 -237.4399734 437.3570075 -241.78167725 437.37107468 C-245.76244949 437.38385406 -249.74296955 437.38258089 -253.72374164 437.37048396 C-255.15784977 437.36853391 -256.59197601 437.37157316 -258.02605874 437.38032833 C-276.7236071 437.48717895 -293.31212685 432.14035823 -307 419 C-317.36384394 408.03296938 -322.4277791 395.50695182 -322.36645508 380.46679688 C-321.75396057 359.25947729 -311.90885158 338.36643147 -302 320 C-301.68595215 319.40670898 -301.3719043 318.81341797 -301.04833984 318.20214844 C-287.25947809 292.28108776 -266.30032297 268.52808648 -242.65332031 251.21777344 C-241.05003412 250.03685325 -239.47365184 248.81967535 -237.8984375 247.6015625 C-219.81172418 233.83331386 -199.11028867 224.13141272 -178 216 C-180.69965774 213.25887994 -183.38125443 210.60440191 -186.375 208.1875 C-190.35707007 204.80747076 -193.66969498 201.01215627 -197 197 C-197.639375 196.24847656 -198.27875 195.49695313 -198.9375 194.72265625 C-223.83796314 164.71565282 -232.78825155 127.56112317 -229.78173828 89.21630859 C-227.99613042 73.44082406 -223.2117325 58.10530032 -216 44 C-215.4534375 42.90945312 -214.906875 41.81890625 -214.34375 40.6953125 C-207.28844311 27.06574238 -197.96801697 15.67938495 -187 5 C-186.32517578 4.2575 -186.32517578 4.2575 -185.63671875 3.5 C-137.22693316 -48.39336818 -51.417201 -41.97322531 0 0 Z M-155 35 C-156.27423828 36.15435547 -156.27423828 36.15435547 -157.57421875 37.33203125 C-172.8239149 51.78771566 -184.86551277 73.51489978 -186.17700195 94.8840332 C-186.55432996 114.38332215 -185.50831235 130.18727589 -177 148 C-176.55914062 148.92296875 -176.11828125 149.8459375 -175.6640625 150.796875 C-164.57173719 172.49125709 -143.89888387 189.62673833 -120.80053711 197.23535156 C-96.55762069 204.5740507 -71.89835816 202.93748392 -49 192 C-48.07703125 191.55914062 -47.1540625 191.11828125 -46.203125 190.6640625 C-25.24532991 179.94835371 -7.83889436 159.87946811 -0.41796875 137.46875 C7.80156407 110.76808467 5.41642383 84.20940043 -7.25 59.375 C-10.82956558 52.95033695 -15.07429347 47.44505615 -20 42 C-21.15822266 40.71802734 -21.15822266 40.71802734 -22.33984375 39.41015625 C-40.73144588 20.06469469 -63.94387881 12.12474808 -90 10 C-114.11274941 10 -137.30610632 18.5878687 -155 35 Z M-170 260 C-171.04099854 260.39759521 -171.04099854 260.39759521 -172.10302734 260.80322266 C-195.8544787 270.04086345 -216.86313206 285.29022605 -235 303 C-235.56138672 303.53802246 -236.12277344 304.07604492 -236.70117188 304.63037109 C-255.15046009 322.59656053 -276.87302271 354.24914597 -278.1875 380.78515625 C-277.96766218 384.55445891 -277.42079001 386.11066999 -275 389 C-269.12300606 393.40774546 -263.19214236 394.1236877 -255.94291878 394.12863445 C-254.1454178 394.13347112 -254.1454178 394.13347112 -252.31160367 394.1384055 C-251.00383335 394.1368569 -249.69606304 394.1353083 -248.34866333 394.13371277 C-246.9385042 394.13558176 -245.52834558 394.13788281 -244.11818779 394.14057809 C-240.24784461 394.14669152 -236.37752306 394.14656304 -232.50717616 394.14538372 C-228.33121708 394.1451796 -224.15526493 394.15069952 -219.97930908 394.15544128 C-211.79987729 394.16374569 -203.6204527 394.16649602 -195.44101705 394.16705366 C-188.79267645 394.16752888 -182.14433823 394.16958394 -175.49599838 394.17275429 C-156.64653666 394.18155998 -137.79708063 394.18617375 -118.94761683 394.18542381 C-117.93155855 394.18538386 -116.91550027 394.1853439 -115.86865234 394.18530273 C-114.3427042 394.18524141 -114.3427042 394.18524141 -112.78592883 394.18517885 C-96.295596 394.18477232 -79.805286 394.19434397 -63.31495978 394.2084411 C-46.38262376 394.22280189 -29.45029888 394.22971146 -12.51795661 394.22884732 C-3.01177944 394.22851527 6.49437381 394.23126606 16.0005455 394.24202538 C24.09341988 394.25112642 32.18625948 394.25330885 40.27913676 394.24651595 C44.40768714 394.24324887 48.53617076 394.2432009 52.66471481 394.2518692 C56.44596576 394.25972666 60.22709691 394.2583105 64.0083449 394.24958507 C66.02027245 394.24732188 68.0322037 394.25488461 70.04411685 394.26282471 C79.09390356 394.22824523 86.6761778 393.92880845 94 388 C96.61326838 384.55523714 96.23197021 381.20860241 96 377 C95.25757895 373.69407703 94.21974827 370.51707792 93.125 367.3125 C92.81328857 366.39694336 92.50157715 365.48138672 92.18041992 364.53808594 C80.64326399 331.84714107 58.56862379 304.63381837 31 284 C30.21625 283.39800781 29.4325 282.79601562 28.625 282.17578125 C0.66143884 261.5526549 -32.77804007 250.2862834 -67 246 C-67.99 245.86851562 -68.98 245.73703125 -70 245.6015625 C-104.0740461 241.9366215 -138.22384091 247.73990712 -170 260 Z " transform="translate(390,110)"/>
</svg>
