<svg xmlns="http://www.w3.org/2000/svg" viewbox="0 0 610 610" fill="currentColor">
<path d="m293 28 2.017.551C316.207 34.46 334.809 46.382 351 61l2.238 2.02c23.714 22.572 36.764 54.624 39.08 86.85.433 5.806.863 10.913 4.682 15.567 5.141 6.587 4.243 14.544 4.125 22.5l-.027 3.518q-.036 4.273-.098 8.545l1.984-.063a829 829 0 0 1 9.016-.187l3.121-.102c7.84-.1 13.17 1.103 19.121 6.317 7.046 8.512 7.755 16.449 8.379 27.224l.165 2.74q.272 4.527.537 9.054l.39 6.506q.527 8.828 1.046 17.654l.653 11.038q1.024 17.282 2.04 34.564 1.17 19.925 2.361 39.849.921 15.417 1.824 30.836.54 9.201 1.092 18.402.52 8.658 1.02 17.318.184 3.168.378 6.336c2.105 34.492 2.105 34.492-9.44 47.952-7.867 8.114-16.586 12.584-27.98 12.942q-3.697.026-7.395.008-2.066.006-4.133.016c-3.767.014-7.533.01-11.3.003-4.07-.005-8.139.008-12.209.018-7.965.017-15.93.018-23.896.013a13403 13403 0 0 0-22.224.005l-5.623.004c-17.568.014-35.136.009-52.705-.003-16.061-.01-32.122.003-48.184.027q-24.756.037-49.512.027c-9.26-.003-18.522 0-27.783.017q-11.825.022-23.65-.002c-4.02-.009-8.04-.011-12.06.004q-5.528.02-11.055-.01c-1.952-.006-3.905.008-5.858.023-12.588-.104-22.123-3.625-31.12-12.53-7.765-9.081-10.533-17.818-10.347-29.641l.028-3.336c.286-18.503 1.57-36.99 2.676-55.458.335-5.61.662-11.22.99-16.83q.828-14.099 1.67-28.195.97-16.256 1.915-32.512.918-15.73 1.852-31.457.395-6.659.782-13.317.457-7.834.931-15.666.171-2.862.336-5.723c1.799-31.195 1.799-31.195 10.605-39.178 4.41-3.734 8.555-4.944 14.3-4.882l3.233.02 3.341.05 3.4.027q4.145.036 8.288.098l-.08-2.643a831 831 0 0 1-.195-9.79 321 321 0 0 0-.102-4.222c-.398-13.193-.398-13.193 2.772-17.747C117 163 117 163 119 162l.078-3.2C120.378 120.674 134.6 87.68 162 61l1.363-1.5C178.936 42.807 201.393 32.976 223 27l2.048-.582C245.965 20.777 272.37 22.082 293 28M171 76l-2.008 1.824C158.584 87.434 151.734 100.237 146 113l-1.465 3.234c-5.906 14.147-8.138 28.54-7.535 43.766h15l.262-3.996c2.212-29.75 13.5-55.135 35.869-75.397C211.68 60.355 240.78 55.253 271 57c24.898 2.866 49.06 16.467 65.063 35.688C351.886 113.24 358.332 134.529 360 160h15c1.229-31.023-11.194-59.665-32.031-82.344-21.942-23.154-51.814-36.538-83.715-37.652C225.537 39.568 194.794 52.442 171 76m25 20-1.914 1.668c-17.184 15.889-24.339 38.63-26.496 61.223.094 3.289.094 3.289 2.789 5.28L173 166c5.088 10.176 2.621 22.629 3 34h160l1-30c4-6 4-6 7-8-.387-23.52-7.972-44.602-24-62l-1.664-1.906C302.34 80.759 279.775 73.976 257 72c-22.913 0-44.15 8.69-61 24m-68 80v24h32v-24zm224 0v24h32v-24zM91 218c-1.538 1.705-1.538 1.705-2 4 .361 2.79.361 2.79 1.344 5.77l1.019 3.419 1.137 3.624 1.143 3.717c8.57 27.469 21.344 51.615 41.357 72.47l2.695 2.887C157.635 334.865 184.11 348.82 212 356h4l.078-1.977c.372-5.736.996-9.552 4.922-14.023 3.76-2.712 6.371-3.38 10.98-3.404l3.58-.038 3.842.008 3.971-.015q4.155-.013 8.31.003a923 923 0 0 0 10.614-.038c3.39-.023 6.778-.016 10.168-.012l3.836-.034c10.905.086 10.905.086 15.699 4.53 3.74 4.384 3.689 9.47 4 15 6.211-.563 11.637-1.967 17.5-4.062l2.647-.943C335.692 343.852 353.753 333.181 369 319l1.824-1.691C385.05 303.963 396.051 289.304 405 272l1.014-1.889c5.178-9.7 8.687-19.822 11.923-30.298l.6-1.938c2.784-8.811 2.784-8.811 4.463-17.875-1.788-2.592-2.96-2.987-6-4a105 105 0 0 0-5.368-.129l-3.398-.01-3.748.005-3.969-.007q-5.465-.008-10.93-.004c-3.927 0-7.853-.006-11.78-.01q-11.542-.012-23.086-.012-9.381 0-18.761-.006a98554 98554 0 0 0-53.161-.012h-5.797q-23.268-.002-46.538-.023a49957 49957 0 0 0-47.756-.02q-13.411.001-26.823-.014-11.418-.014-22.837-.005-5.827.007-11.655-.005c-4.208-.01-8.417-.003-12.626.005l-3.734-.016-3.413.014h-2.944c-2.915.271-5.053.965-7.676 2.249m-6 48c-1.65 21.147-2.98 42.307-4.234 63.48l-.151 2.541q-.706 11.901-1.403 23.802-.883 15.08-1.794 30.158-.645 10.697-1.266 21.395a3785 3785 0 0 1-.758 12.713q-.365 5.95-.7 11.901-.124 2.175-.263 4.35c-.673 10.616-.582 18.69 5.733 27.61 4.857 5.425 10.748 7.42 17.836 8.05 4.26.145 8.516.14 12.778.134l3.909.007q5.355.008 10.71.004 5.78.002 11.562.01 11.32.012 22.64.012 9.202 0 18.404.006 26.1.013 52.2.012h5.685q22.823.002 45.647.023 23.445.023 46.888.02 13.16-.001 26.317.014 11.203.014 22.405.005 5.712-.007 11.426.005c4.132.01 8.265.003 12.397-.005l3.632.016c9.534-.04 19.002-.596 26.4-7.263 6.311-7.971 7.335-15.453 6.747-25.387l-.119-2.115c-.132-2.315-.274-4.63-.417-6.945l-.29-5.009q-.395-6.778-.806-13.556c-.285-4.74-.562-9.48-.84-14.22q-.701-11.94-1.417-23.881-.914-15.296-1.813-30.593a53153 53153 0 0 0-2.057-34.813q-.393-6.651-.793-13.302l-.289-4.863c-.48-8.125-1.017-16.224-1.906-24.316-2.759 3.547-4.69 7.276-6.625 11.313C413.142 291.976 404.693 304.614 394 317l-1.479 1.725C386.281 325.95 379.583 332.194 372 338l-2.832 2.238c-20.603 15.97-44.324 26.959-69.86 32.219-2.258.317-2.258.317-3.308 1.543-.17 3.279-.297 6.55-.342 9.834-.203 5.118-1.333 8.078-4.658 12.166-4.697 3.492-9.275 4.115-15.015 4.161l-2.944.03-3.15.012-3.277.017q-3.43.014-6.86.02c-3.478.01-6.955.041-10.434.072q-3.34.01-6.68.016l-3.125.038c-6.22-.02-11.87-.565-17.515-3.366-4.708-4.826-5.22-8.607-5.562-15.125l-.131-2.285A1637 1637 0 0 1 216 374c-3.948-1.376-7.912-2.511-11.962-3.546-44.102-11.47-82.802-40.998-105.917-80.231-4.484-7.86-8.625-15.87-12.121-24.223zm148 86v32h47v-32z" transform="translate(50, 60)"/></svg>