<svg version="1.1" xmlns="http://www.w3.org/2000/svg" class="icon icon-close" viewBox="0 0 582 582" fill="currentColor">
<path d="M0 0 C0.92554687 0.40089844 1.85109375 0.80179687 2.8046875 1.21484375 C16.54309428 7.92837114 27.35929164 21.21660809 38.04003906 31.92651367 C39.50955559 33.39631293 40.97929365 34.86589072 42.44923401 36.33526611 C46.40311782 40.28886531 50.35393054 44.24552013 54.30416203 48.20276809 C58.44630794 52.35120378 62.59132296 56.49677078 66.73602295 60.64265442 C74.56810521 68.47783351 82.39763686 76.31555615 90.22623515 84.15421611 C99.14575554 93.08494904 108.06814639 102.01281185 116.99076891 110.9404453 C135.33035497 129.2904584 153.6663678 147.64403849 172 166 C176.28374169 164.34669654 179.13558836 161.12423356 182.29139709 157.92219543 C183.23430773 156.97761468 183.23430773 156.97761468 184.19626707 156.01395148 C186.30497 153.89916866 188.40643269 151.77733374 190.50805664 149.65551758 C192.01741384 148.13904875 193.52724195 146.62304849 195.0375061 145.10748291 C198.29178404 141.84009332 201.5430275 138.56972385 204.79207039 135.29712868 C209.93484717 130.11777656 215.08630137 124.94711519 220.23936462 119.77799988 C234.89257921 105.07647984 249.53411924 90.36336597 264.16674805 75.64135742 C272.24628103 67.51262686 280.33306423 59.39117859 288.42759985 51.27738684 C293.54592162 46.14601715 298.65511465 41.00578319 303.75764191 35.85870993 C306.94427159 32.64851758 310.13933194 29.44681907 313.33676529 26.24739075 C314.81118784 24.76869499 316.28219298 23.28658205 317.74938393 21.80071068 C331.66024144 7.71973217 346.13882105 -4.04292226 366.8659668 -4.38037109 C384.85513591 -4.34612676 399.39234203 -0.03982483 412.71484375 12.5859375 C425.85629884 26.46870544 429.64923053 42.02224065 429.3125 60.5625 C429.0388654 67.19357842 427.69662912 72.93047114 425 79 C424.59910156 79.92554687 424.19820313 80.85109375 423.78515625 81.8046875 C417.07162886 95.54309428 403.78339191 106.35929164 393.07348633 117.04003906 C391.60368707 118.50955559 390.13410928 119.97929365 388.66473389 121.44923401 C384.71113469 125.40311782 380.75447987 129.35393054 376.79723191 133.30416203 C372.64879622 137.44630794 368.50322922 141.59132296 364.35734558 145.73602295 C356.52216649 153.56810521 348.68444385 161.39763686 340.84578389 169.22623515 C331.91505096 178.14575554 322.98718815 187.06814639 314.0595547 195.99076891 C295.7095416 214.33035497 277.35596151 232.6663678 259 251 C260.65330346 255.28374169 263.87576644 258.13558836 267.07780457 261.29139709 C267.70752507 261.92000419 268.33724558 262.54861128 268.98604852 263.19626707 C271.10083134 265.30497 273.22266626 267.40643269 275.34448242 269.50805664 C276.86095125 271.01741384 278.37695151 272.52724195 279.89251709 274.0375061 C283.15990668 277.29178404 286.43027615 280.5430275 289.70287132 283.79207039 C294.88222344 288.93484717 300.05288481 294.08630137 305.22200012 299.23936462 C319.92352016 313.89257921 334.63663403 328.53411924 349.35864258 343.16674805 C357.48737314 351.24628103 365.60882141 359.33306423 373.72261316 367.42759985 C378.85398285 372.54592162 383.99421681 377.65511465 389.14129007 382.75764191 C392.35148242 385.94427159 395.55318093 389.13933194 398.75260925 392.33676529 C400.23130501 393.81118784 401.71341795 395.28219298 403.19928932 396.74938393 C417.28026783 410.66024144 429.04292226 425.13882105 429.38037109 445.8659668 C429.34612676 463.85513591 425.03982483 478.39234203 412.4140625 491.71484375 C398.53129456 504.85629884 382.97775935 508.64923053 364.4375 508.3125 C357.80642158 508.0388654 352.06952886 506.69662912 346 504 C345.07445312 503.59910156 344.14890625 503.19820313 343.1953125 502.78515625 C329.45690572 496.07162886 318.64070836 482.78339191 307.95996094 472.07348633 C306.49044441 470.60368707 305.02070635 469.13410928 303.55076599 467.66473389 C299.59688218 463.71113469 295.64606946 459.75447987 291.69583797 455.79723191 C287.55369206 451.64879622 283.40867704 447.50322922 279.26397705 443.35734558 C271.43189479 435.52216649 263.60236314 427.68444385 255.77376485 419.84578389 C246.85424446 410.91505096 237.93185361 401.98718815 229.00923109 393.0595547 C210.66964503 374.7095416 192.3336322 356.35596151 174 338 C169.71625831 339.65330346 166.86441164 342.87576644 163.70860291 346.07780457 C163.07999581 346.70752507 162.45138872 347.33724558 161.80373293 347.98604852 C159.69503 350.10083134 157.59356731 352.22266626 155.49194336 354.34448242 C153.98258616 355.86095125 152.47275805 357.37695151 150.9624939 358.89251709 C147.70821596 362.15990668 144.4569725 365.43027615 141.20792961 368.70287132 C136.06515283 373.88222344 130.91369863 379.05288481 125.76063538 384.22200012 C111.10742079 398.92352016 96.46588076 413.63663403 81.83325195 428.35864258 C73.75371897 436.48737314 65.66693577 444.60882141 57.57240015 452.72261316 C52.45407838 457.85398285 47.34488535 462.99421681 42.24235809 468.14129007 C39.05572841 471.35148242 35.86066806 474.55318093 32.66323471 477.75260925 C31.18881216 479.23130501 29.71780702 480.71341795 28.25061607 482.19928932 C14.33975856 496.28026783 -0.13882105 508.04292226 -20.8659668 508.38037109 C-38.85513591 508.34612676 -53.39234203 504.03982483 -66.71484375 491.4140625 C-79.85629884 477.53129456 -83.64923053 461.97775935 -83.3125 443.4375 C-83.0388654 436.80642158 -81.69662912 431.06952886 -79 425 C-78.39865234 423.61167969 -78.39865234 423.61167969 -77.78515625 422.1953125 C-71.07162886 408.45690572 -57.78339191 397.64070836 -47.07348633 386.95996094 C-45.60368707 385.49044441 -44.13410928 384.02070635 -42.66473389 382.55076599 C-38.71113469 378.59688218 -34.75447987 374.64606946 -30.79723191 370.69583797 C-26.64879622 366.55369206 -22.50322922 362.40867704 -18.35734558 358.26397705 C-10.52216649 350.43189479 -2.68444385 342.60236314 5.15421611 334.77376485 C14.08494904 325.85424446 23.01281185 316.93185361 31.9404453 308.00923109 C50.2904584 289.66964503 68.64403849 271.3336322 87 253 C85.34669654 248.71625831 82.12423356 245.86441164 78.92219543 242.70860291 C78.29247493 242.07999581 77.66275442 241.45138872 77.01395148 240.80373293 C74.89916866 238.69503 72.77733374 236.59356731 70.65551758 234.49194336 C69.13904875 232.98258616 67.62304849 231.47275805 66.10748291 229.9624939 C62.84009332 226.70821596 59.56972385 223.4569725 56.29712868 220.20792961 C51.11777656 215.06515283 45.94711519 209.91369863 40.77799988 204.76063538 C26.07647984 190.10742079 11.36336597 175.46588076 -3.35864258 160.83325195 C-11.48737314 152.75371897 -19.60882141 144.66693577 -27.72261316 136.57240015 C-32.85398285 131.45407838 -37.99421681 126.34488535 -43.14129007 121.24235809 C-46.35148242 118.05572841 -49.55318093 114.86066806 -52.75260925 111.66323471 C-54.23130501 110.18881216 -55.71341795 108.71780702 -57.19928932 107.25061607 C-71.28026783 93.33975856 -83.04292226 78.86117895 -83.38037109 58.1340332 C-83.34612676 40.14486409 -79.03982483 25.60765797 -66.4140625 12.28515625 C-49.02508059 -4.17528779 -22.1993295 -9.8629333 0 0 Z " fill="currentColor" transform="translate(120,30)"/>
</svg>