<?xml version="1.0" encoding="utf-8"?>
<svg data-name="Layer 1" viewBox="2.504 14.295 95.931 72.412" x="0px" y="0px" xmlns="http://www.w3.org/2000/svg">
  <defs/>
  <path d="M38.24889,28.09758c6.12423,0,13.425-.60532,13.425-3.48981,0-2.88495-7.30073-3.49027-13.425-3.49027s-13.425.60532-13.425,3.49027C24.82393,27.49226,32.12466,28.09758,38.24889,28.09758Zm0-4.14541a48.50312,48.50312,0,0,1,8.62763.6556,48.557,48.557,0,0,1-8.62763.65515,48.557,48.557,0,0,1-8.62763-.65515A48.50312,48.50312,0,0,1,38.24889,23.95217Z"/>
  <path d="M94.30173,42.1883C91.17376,27.08683,67.36,19.83784,63.36891,18.72357c-6.41617-1.94629-15.96735-2.86938-25.12-2.86938-15.78534,0-32.77577,2.73916-32.77577,8.75358v20.3446a1.40748,1.40748,0,0,0,.254.80677c2.13661,5.16625,17.84582,7.53574,32.52179,7.53574,15.78534,0,32.77577-2.73916,32.77577-8.75359a1.38272,1.38272,0,0,0-.015-.149c4.02615,1.697,10.37853,4.83176,13.93154,8.89315-9.59143,5.75168-25.90446,7.86262-26.106,7.88782l-1.24109.15549V84.14581l1.59358-.19931c1.40625-.17578,34.46438-4.47714,35.32161-19.0643a1.67787,1.67787,0,0,1,.01753-.6676V44.95237a1.40475,1.40475,0,0,0-.0203-.20081A10.44745,10.44745,0,0,0,94.30173,42.1883ZM38.24889,18.68885c19.37295,0,29.94111,3.91012,29.94111,5.91892s-10.56816,5.91847-29.94111,5.91847S8.30778,26.61658,8.30778,24.60777,18.87594,18.68885,38.24889,18.68885ZM66.1286,46.36463V38.49042a1.41734,1.41734,0,0,0-2.83467,0V47.47a47.99759,47.99759,0,0,1-5.53921,1.37131V43.38418a1.41733,1.41733,0,1,0-2.83466,0v5.94256c-1.69162.25583-3.54068.47891-5.53922.65867V41.11192a1.41733,1.41733,0,0,0-2.83466,0v9.09183q-2.82843.18107-6.008.23565V44.318a1.41733,1.41733,0,1,0-2.83466,0v6.13877q-2.64746-.01022-5.07046-.11292V41.11192a1.41734,1.41734,0,0,0-2.83467,0v9.08261c-1.85978-.12152-3.59892-.28231-5.22733-.47118v-5.625a1.41733,1.41733,0,0,0-2.83466,0V49.3497c-1.95113-.29113-3.69581-.62441-5.233-.98174.00081-.019.00565-.03674.00565-.05588V38.49042a1.41733,1.41733,0,0,0-2.83466,0v9.12649c-3.53133-1.07546-5.36666-2.2399-5.36666-3.07562V28.46939c5.482,3.33669,18.0517,4.89151,29.94111,4.89151,12.06415,0,24.82312-1.60228,30.17237-5.04128L68.19,44.07762a1.4151,1.4151,0,0,0,.02168.24965,1.39338,1.39338,0,0,0-.02168.214C68.19,45.05659,67.48964,45.6972,66.1286,46.36463Zm5.11014-4.94543a1.40357,1.40357,0,0,0-.17371-.051l.24568-16.73968c.00023-.0214-.00484-.04141-.00542-.06258,7.93073,3.36582,18.3945,9.38094,20.22084,18.19721a7.33238,7.33238,0,0,1-1.35366,6.02,14.29047,14.29047,0,0,1-2.87377,2.89234C83.14014,46.74411,75.47285,43.13838,71.23874,41.4192ZM89.84582,69.14186V65.64531a1.41734,1.41734,0,0,0-2.83467,0v6.18208a27.57936,27.57936,0,0,1-3.61437,2.24145V66.16066a1.41733,1.41733,0,0,0-2.83466,0V75.4255c-1.37962.59973-2.82279,1.15032-4.29075,1.65552V71.57438a1.41733,1.41733,0,0,0-2.83466,0v6.42c-1.44421.43426-2.88588.82487-4.29167,1.1728V70.42557a1.41733,1.41733,0,0,0-2.83466,0v9.39864c-2.17848.47216-4.19456.8356-5.88156,1.08924V63.81275c5.10092-.7604,24.09139-4.09363,31.2634-12.39473V64.2146a1.42054,1.42054,0,0,0,.02607.25819,1.4721,1.4721,0,0,0-.03806.24332A7.8382,7.8382,0,0,1,89.84582,69.14186Z"/>
</svg>