<svg xmlns="http://www.w3.org/2000/svg" viewbox="0 0 600 600" fill="currentColor">
<path d="M212 24c2.672 2.148 2.672 2.148 5 5l2.578 2.727c5.283 5.73 10.351 11.55 15.242 17.625 2.158 2.62 4.393 5.14 6.68 7.648 4.712 5.169 9.118 10.55 13.5 16 3.84-1.519 5.675-3.778 8.188-7 3.003-3.776 6.055-7.44 9.312-11a234 234 0 0 0 9-10.5 275 275 0 0 1 11.512-13.328 81 81 0 0 0 3.383-3.906c2.38-2.835 3.522-3.259 7.276-3.593 4.612.121 7.984 1.597 12.035 3.686l2.22 1.095a872 872 0 0 1 7.29 3.668q2.627 1.311 5.255 2.616c4.747 2.364 9.483 4.747 14.218 7.135 4.956 2.495 9.92 4.974 14.883 7.455q12.494 6.25 24.971 12.532c9.625 4.844 19.258 9.67 28.896 14.488q13.903 6.951 27.794 13.923 5.917 2.969 11.835 5.93 6.962 3.484 13.913 6.99 2.556 1.287 5.115 2.565c2.324 1.16 4.642 2.331 6.96 3.504l2.064 1.023c3.24 1.654 4.818 2.624 6.88 5.717.863 4.395.874 6.627-1.555 10.441a166 166 0 0 1-5.999 6.96c-2.08 2.301-4.096 4.658-6.12 7.01q-2.486 2.881-4.986 5.75C461.077 155.652 452.91 165.21 445 175c5.049 6.108 10.55 11.663 16.176 17.238l2.926 2.915q4.603 4.583 9.21 9.16a9265 9265 0 0 1 10.73 10.674q2.144 2.131 4.29 4.257l2.61 2.601 2.308 2.291c2.937 3.128 2.943 5.563 3.176 9.794-.613 2.982-2.176 4.06-4.426 6.07-2.366 1.43-2.366 1.43-5.012 2.749l-3.013 1.516c-1.6.79-1.6.79-3.233 1.594l-3.331 1.665q-3.48 1.736-6.965 3.459c-3.569 1.766-7.13 3.545-10.692 5.326l-6.762 3.363-3.245 1.619-2.994 1.478-2.641 1.309C442 265 442 265 440 265l.011 2.035q.133 24.499.196 48.999c.02 7.898.049 15.797.095 23.695q.06 10.325.074 20.651c.006 3.646.018 7.291.047 10.936.032 4.069.033 8.136.031 12.205l.044 3.668-.017 3.357.011 2.916c-.66 3.408-1.772 4.4-4.492 6.538a122 122 0 0 1-7.109 3.822l-2.171 1.1c-2.397 1.21-4.8 2.41-7.203 3.61l-5.165 2.603a5605 5605 0 0 1-14.034 7.04q-4.386 2.196-8.77 4.397-15.297 7.676-30.606 15.327c-9.511 4.755-19.014 9.528-28.513 14.308q-12.235 6.157-24.49 12.28a4601 4601 0 0 0-14.62 7.338q-6.871 3.464-13.76 6.885-2.526 1.26-5.041 2.535a718 718 0 0 1-6.901 3.441l-1.997 1.03c-5.238 2.542-9.913 3.452-15.503 1.69-1.994-.837-3.901-1.774-5.823-2.765l-2.22-1.095a872 872 0 0 1-7.29-3.668q-2.627-1.311-5.255-2.616a3144 3144 0 0 1-14.218-7.135c-4.956-2.495-9.92-4.974-14.883-7.455q-12.494-6.25-24.971-12.532c-9.625-4.844-19.258-9.67-28.896-14.488q-13.903-6.951-27.794-13.923-5.917-2.969-11.835-5.93a4980 4980 0 0 1-13.913-6.99 1742 1742 0 0 0-5.115-2.565c-2.324-1.16-4.642-2.331-6.96-3.504l-2.064-1.023c-3.24-1.654-4.818-2.624-6.88-5.717-.246-2.415-.246-2.415-.24-5.334l-.009-3.353.022-3.679v-3.873c-.002-3.506.01-7.012.024-10.518.013-3.663.014-7.327.016-10.99q.011-10.407.043-20.814c.022-7.899.033-15.797.043-23.695Q71.931 289.372 72 265l-2.684-.851c-2.93-1.015-5.598-2.157-8.372-3.532-.954-.47-1.908-.94-2.89-1.426l-3.07-1.53-3.188-1.585a3946 3946 0 0 1-6.647-3.316c-3.397-1.696-6.8-3.38-10.204-5.063l-6.46-3.224-3.094-1.525-2.853-1.436-2.516-1.254C18 239 18 239 16 236c-.996-6.53-.996-6.53 1.224-9.805l1.667-1.814 1.933-2.108c4.103-4.286 8.277-8.495 12.485-12.68l2.93-2.924q3.815-3.81 7.638-7.615 3.914-3.9 7.824-7.804Q59.347 183.62 67 176c-2.524-3.843-5.051-7.323-8.187-10.687-3.225-3.52-6.314-7.1-9.313-10.813a234 234 0 0 0-9-10.5c-4.706-5.168-9.15-10.53-13.5-16l-1.73-2.07c-1.426-2.166-1.702-3.36-1.707-5.93l-.06-2c.73-2.937 2.223-4.008 4.497-6a122 122 0 0 1 7.109-3.822l2.171-1.1c2.397-1.21 4.8-2.41 7.203-3.61l5.165-2.603q7.012-3.53 14.034-7.04 4.386-2.196 8.77-4.397 15.297-7.675 30.606-15.327c9.511-4.755 19.014-9.528 28.513-14.308q12.235-6.157 24.49-12.28c4.877-2.44 9.752-4.882 14.62-7.338q6.871-3.464 13.76-6.885 2.526-1.26 5.041-2.535a718 718 0 0 1 6.901-3.441l1.997-1.03c4.846-2.351 8.354-2.771 13.62-2.284m-14.239 22-1.96.977q-3.269 1.633-6.532 3.275l-4.67 2.335q-6.356 3.178-12.707 6.365-6.632 3.324-13.268 6.643a42620 42620 0 0 0-25.138 12.59q-14.306 7.168-28.614 14.329Q75.432 107.25 46 122c1.618 3.408 3.478 5.795 6.063 8.563A227 227 0 0 1 61.5 141.5c3.65 4.507 7.444 8.841 11.348 13.129 3.1 3.414 6.128 6.89 9.152 10.371 4.416-1.368 8.436-3.094 12.568-5.164l1.921-.958q3.167-1.583 6.329-3.173l4.554-2.277q6.169-3.085 12.333-6.18 6.45-3.231 12.9-6.458 12.21-6.11 24.416-12.228 13.9-6.965 27.802-13.923A128725 128725 0 0 0 242 86c-1.618-3.408-3.478-5.795-6.062-8.562A227 227 0 0 1 226.5 66.5c-3.65-4.509-7.443-8.846-11.355-13.129-2.651-2.93-5.2-5.941-7.735-8.973-3.067-3.04-6.359-.047-9.649 1.601m105.735-.543a407 407 0 0 0-3.058 3.355l-1.63 1.787c-4.044 4.466-7.879 9.076-11.652 13.772C283.591 68.718 279.78 72.84 276 77c-4.19 3.979-4.19 3.979-6 9a35421 35421 0 0 0 61.595 31.005q14.307 7.182 28.598 14.393 12.453 6.286 24.923 12.537 6.608 3.309 13.2 6.646 6.2 3.14 12.42 6.24 2.286 1.143 4.562 2.305a587 587 0 0 0 6.223 3.115l3.52 1.771c2.836 1.264 2.836 1.264 5.223.299 2.448-1.848 4.383-3.958 6.423-6.249l1.319-1.474c3.717-4.192 7.248-8.53 10.767-12.889 3.599-4.362 7.426-8.514 11.227-12.699 4.19-3.979 4.19-3.979 6-9q-30.846-15.458-61.698-30.901-14.325-7.17-28.646-14.347-12.479-6.253-24.96-12.498-6.614-3.308-13.224-6.624a8713 8713 0 0 0-12.434-6.224q-2.288-1.145-4.574-2.293a2350 2350 0 0 0-6.225-3.114l-3.525-1.765c-3.984-1.821-3.984-1.821-7.218 1.223m-55.823 55.466-1.916.953c-2.12 1.057-4.234 2.124-6.348 3.192q-2.276 1.14-4.553 2.276a4907 4907 0 0 0-12.359 6.205c-4.302 2.163-8.61 4.318-12.916 6.474q-12.233 6.127-24.458 12.271a29404 29404 0 0 1-27.845 13.966Q128.632 160.616 100 175v2a33473 33473 0 0 0 59.926 30.17q13.92 6.988 27.825 14.007a8884 8884 0 0 0 24.253 12.202q6.428 3.218 12.841 6.467 6.036 3.057 12.09 6.074a647 647 0 0 1 4.434 2.241 556 556 0 0 0 6.063 3.036l3.425 1.724c4.775 1.64 7.697.688 12.255-1.231l3.38-1.696c.626-.31 1.252-.622 1.896-.943 2.086-1.04 4.166-2.09 6.246-3.141q2.248-1.125 4.495-2.247c4.061-2.03 8.117-4.07 12.173-6.111 4.24-2.133 8.487-4.257 12.732-6.382q12.052-6.037 24.096-12.091 13.716-6.889 27.44-13.763A62756 62756 0 0 0 412 177v-2a67152 67152 0 0 0-60.03-30.119q-13.94-6.983-27.872-13.983a17817 17817 0 0 0-24.29-12.182q-6.436-3.221-12.865-6.456-6.047-3.044-12.105-6.067a1300 1300 0 0 1-4.445-2.235c-2.018-1.02-4.041-2.028-6.066-3.035l-3.43-1.72c-5.331-2.213-8.336-.732-13.224 1.72M79.045 188.594l-2.241 2.261-2.547 2.549c-.904.918-1.807 1.837-2.737 2.784l-2.813 2.824q-3.699 3.722-7.383 7.458c-2.508 2.539-5.025 5.07-7.54 7.6A6731 6731 0 0 0 39 229c2.61 3.034 5.629 4.507 9.18 6.29l1.905.963q3.162 1.593 6.329 3.172 2.267 1.14 4.533 2.282 6.158 3.096 12.323 6.179 5.142 2.574 10.28 5.152 12.123 6.08 24.252 12.141 12.524 6.262 25.032 12.555 10.734 5.395 21.48 10.767 6.422 3.208 12.835 6.436a2669 2669 0 0 0 12.068 6.038q2.219 1.107 4.43 2.227a736 736 0 0 0 6.046 3.015l3.418 1.712c2.974 1.102 4.043 1.35 6.889.071 2.127-1.692 2.127-1.692 4.218-3.877l2.486-2.487 2.655-2.702 2.74-2.754c2.401-2.412 4.792-4.832 7.182-7.255 2.441-2.472 4.89-4.935 7.34-7.4q7.2-7.25 14.379-14.525c-2.612-3.037-5.63-4.504-9.187-6.284l-1.907-.96c-2.11-1.061-4.222-2.113-6.336-3.165l-4.538-2.277a6111 6111 0 0 0-12.334-6.167c-4.301-2.146-8.599-4.299-12.897-6.45q-10.826-5.416-21.658-10.821-12.533-6.256-25.056-12.53-10.744-5.384-21.496-10.752-6.425-3.208-12.845-6.426a5219 5219 0 0 0-12.076-6.03q-2.22-1.107-4.437-2.22-3.02-1.514-6.046-3.015l-3.421-1.709c-3.333-1.439-4.822-1.964-7.721.4m342.672 1.367-1.938.965q-3.224 1.611-6.44 3.234-2.305 1.155-4.612 2.306-6.269 3.136-12.532 6.284-6.544 3.283-13.093 6.559-12.402 6.21-24.798 12.43-14.111 7.08-28.23 14.148A88801 88801 0 0 0 272 265c0 3.87 1.014 4.407 3.684 7.12l2.439 2.497 2.67 2.68 2.722 2.752q2.858 2.88 5.727 5.75a982 982 0 0 1 7.31 7.401c2.317 2.358 4.655 4.695 6.991 7.034 1.306 1.34 1.306 1.34 2.64 2.705.82.811 1.64 1.623 2.486 2.458l2.173 2.187c2.042 1.664 2.042 1.664 4.39 1.195 3.307-.93 6.143-2.282 9.216-3.822l1.918-.956c2.116-1.055 4.227-2.119 6.338-3.183q2.277-1.14 4.554-2.276 6.176-3.09 12.346-6.192 6.452-3.238 12.908-6.466 12.222-6.12 24.437-12.25 13.91-6.978 27.823-13.945A86084 86084 0 0 0 472 231c0-3.88-1.023-4.402-3.716-7.104l-2.458-2.487-2.69-2.67-2.735-2.746a1688 1688 0 0 0-5.753-5.736 1460 1460 0 0 1-7.364-7.375c-2.334-2.347-4.678-4.682-7.022-7.019l-2.671-2.689-2.487-2.458-2.187-2.18c-3.951-3.166-7.193-.583-11.2 1.425M88 274v113c28.031 14.045 28.031 14.045 56.066 28.082q17.142 8.579 34.278 17.166 12.478 6.253 24.96 12.498 6.614 3.308 13.224 6.624 6.215 3.117 12.434 6.224 2.288 1.145 4.574 2.293 3.11 1.561 6.225 3.114l3.525 1.765c2.52 1.372 2.52 1.372 4.714 1.234V285c-5.649 4.811-5.649 4.811-10.976 9.878l-2.102 2.112-2.192 2.217-2.31 2.321a6123 6123 0 0 0-7.232 7.284 8265 8265 0 0 1-9.583 9.645l-2.222 2.247-2.054 2.065-1.807 1.822c-2.816 2.606-5.373 2.801-9.159 2.741-4.726-.664-8.772-3.029-12.97-5.197l-3.127-1.567c-3.396-1.706-6.78-3.434-10.164-5.162q-3.54-1.785-7.081-3.565a4763 4763 0 0 1-16.695-8.446 9291 9291 0 0 0-24.54-12.41l-1.818-.918-5.358-2.701q-5.217-2.636-10.427-5.285l-6.352-3.216c-.972-.495-1.943-.99-2.944-1.502l-2.676-1.35-2.332-1.185c-1.842-.962-1.842-.962-3.879-.828m329.79 2.012-2.677 1.351-2.944 1.502-3.094 1.567a5426 5426 0 0 0-6.673 3.383q-5.28 2.679-10.567 5.344l-3.62 1.825-1.832.924a9383 9383 0 0 0-24.601 12.448 4766 4766 0 0 1-18.37 9.278q-3.502 1.767-6.997 3.55c-3.262 1.666-6.533 3.31-9.808 4.95l-2.907 1.503c-5.53 2.74-9.513 4.209-15.7 3.363-2.236-1.238-2.236-1.238-3.975-2.979l-2.004-1.946L300 320l-2.036-1.984a527 527 0 0 1-6.366-6.356l-2.313-2.324q-3.615-3.633-7.223-7.274-4.79-4.83-9.59-9.652l-2.228-2.253-2.045-2.055c-.595-.6-1.19-1.202-1.804-1.82-1.202-1.395-1.202-1.395-2.395-1.282v181c4.53-1.51 8.343-3.048 12.568-5.164l1.921-.958q3.167-1.583 6.329-3.173l4.554-2.277q6.169-3.085 12.333-6.18 6.45-3.231 12.9-6.458 12.21-6.11 24.416-12.228 16.499-8.268 33.002-16.526C389.35 404.363 406.675 395.681 424 387V274c-2.563 0-3.922.85-6.21 2.012" transform="translate(60, 50)"/></svg>