<svg version="1.1" xmlns="http://www.w3.org/2000/svg" class="icon icon-close" viewBox="0 0 582 582" fill="currentColor">
<path d="M0 0 C2.50306854 0.97540437 3.81525662 2.17246708 5.71233058 4.07308918 C6.42045728 4.77524274 7.12858399 5.4773963 7.85816908 6.20082724 C8.62859832 6.97999501 9.39902756 7.75916277 10.19280314 8.56194168 C11.01701487 9.38359013 11.84122659 10.20523858 12.69041443 11.05178547 C14.97857616 13.33585431 17.25986543 15.62654165 19.53845119 17.92015642 C21.99651492 20.39115787 24.46322404 22.85350177 26.92890239 25.31690079 C31.20030475 29.58672899 35.46617359 33.86202203 39.72834849 38.14106041 C45.89076454 44.32784244 52.06143354 50.50633827 58.23415771 56.6828336 C68.24840521 66.70364936 78.25593288 76.73114834 88.25927043 86.76285416 C97.97743765 96.50855226 107.69874617 106.25109912 117.42430949 115.98941666 C118.02364471 116.58954005 118.62297993 117.18966343 119.24047682 117.80797238 C122.24714099 120.81855162 125.25386716 123.82906893 128.26062417 126.83955544 C153.21038645 151.82042527 178.14925825 176.81214306 203.08104777 201.81094986 C206.18625059 200.43004926 208.29480661 198.84305725 210.68553996 196.43858677 C211.38771647 195.73730886 212.08989299 195.03603095 212.81334758 194.31350219 C213.57715739 193.5404561 214.34096721 192.76741 215.12792277 191.97093827 C216.35388164 190.74225093 216.35388164 190.74225093 217.60460734 189.48874164 C219.87179514 187.21459044 222.13442791 184.93601625 224.39527202 182.65556163 C226.83468274 180.19723924 229.27994262 177.74474803 231.72460246 175.29164749 C235.95964163 171.04059849 240.19127483 166.7861837 244.42089152 162.52973992 C251.10267537 155.80606472 257.79422757 149.09215877 264.48729777 142.37972122 C266.77642191 140.08371734 269.06546977 137.78763742 271.35448527 135.49152523 C271.92650172 134.91773713 272.49851817 134.34394903 273.08786845 133.75277341 C279.59783946 127.22230982 286.1054727 120.68951857 292.61229777 114.15592057 C293.20710948 113.5586663 293.80192119 112.96141204 294.41475749 112.34605917 C304.06423253 102.65653527 313.70778467 92.96113189 323.35006022 83.26444445 C333.24455106 73.31459792 343.14859428 63.37432628 353.0607841 53.44211173 C359.17795226 47.31184345 365.28697495 41.17367341 371.38588405 35.02523824 C375.5619031 30.81659954 379.74685259 26.61698395 383.9390533 22.42446385 C386.36015886 20.0025888 388.7769079 17.57673254 391.18297648 15.13991028 C393.78873197 12.50502292 396.40923123 9.88576343 399.03417277 7.27001053 C399.79798259 6.49027227 400.5617924 5.71053401 401.34874797 4.90716732 C402.05092448 4.21371265 402.753101 3.52025798 403.47655559 2.80578953 C404.08042094 2.19894143 404.6842863 1.59209332 405.30645061 0.96685588 C407.08104777 -0.18905014 407.08104777 -0.18905014 409.15957999 0.00167441 C412.04845051 1.21839634 413.82801177 3.15961954 416.04906535 5.35904557 C416.52918071 5.83069138 417.00929606 6.30233719 417.50396037 6.7882753 C419.08572362 8.3466734 420.65607307 9.91599545 422.22557902 11.48673111 C423.32055552 12.57460777 424.41583053 13.66218405 425.5113914 14.7494722 C427.80374786 17.02838643 430.09008261 19.31314964 432.37279582 21.60172135 C435.30289041 24.5377238 438.25085178 27.45503519 441.20400786 30.36781651 C443.46966624 32.60766961 445.72379958 34.85884707 447.97476077 37.11346108 C449.05732163 38.19432519 450.14388621 39.27119431 451.23443866 40.34399468 C452.75512461 41.84262383 454.2591832 43.35618252 455.76000285 44.87467057 C456.62063838 45.73325165 457.48127391 46.59183274 458.3679893 47.47643143 C460.08104777 49.81094986 460.08104777 49.81094986 459.89199764 51.72990209 C458.91659327 54.23297063 457.71953055 55.54515871 455.81890845 57.44223267 C455.11675489 58.15035937 454.41460133 58.85848608 453.69117039 59.58807117 C452.52241875 60.74371503 452.52241875 60.74371503 451.33005595 61.92270523 C450.09758328 63.15902282 450.09758328 63.15902282 448.84021217 64.42031652 C446.55614332 66.70847825 444.26545598 68.98976752 441.97184122 71.26835328 C439.50083977 73.72641701 437.03849587 76.19312613 434.57509685 78.65880448 C430.30526865 82.93020684 426.02997561 87.19607568 421.75093722 91.45825058 C415.56415519 97.62066663 409.38565937 103.79133563 403.20916403 109.9640598 C393.18834828 119.9783073 383.1608493 129.98583497 373.12914348 139.98917252 C363.38344537 149.70733974 353.64089851 159.42864826 343.90258098 169.15421158 C343.0023959 170.05321441 343.0023959 170.05321441 342.08402526 170.97037891 C339.07344602 173.97704307 336.06292871 176.98376925 333.05244219 179.99052626 C308.07157236 204.94028854 283.07985458 229.87916034 258.08104777 254.81094986 C259.46194837 257.91615268 261.04894039 260.0247087 263.45341086 262.41544205 C264.50532773 263.46870682 264.50532773 263.46870682 265.57849544 264.54324967 C266.35154154 265.30705948 267.12458763 266.0708693 267.92105937 266.85782486 C269.1497467 268.08378372 269.1497467 268.08378372 270.403256 269.33450943 C272.67740719 271.60169723 274.95598138 273.86433 277.23643601 276.12517411 C279.6947584 278.56458483 282.1472496 281.00984471 284.60035014 283.45450455 C288.85139914 287.68954372 293.10581394 291.92117691 297.36225772 296.15079361 C304.08593292 302.83257746 310.79983887 309.52412965 317.51227641 316.21719986 C319.8082803 318.506324 322.10436021 320.79537186 324.4004724 323.08438736 C324.9742605 323.65640381 325.54804861 324.22842026 326.13922423 324.81777054 C332.66968781 331.32774155 339.20247907 337.83537479 345.73607707 344.34219986 C346.33333133 344.93701157 346.93058559 345.53182328 347.54593847 346.14465958 C357.23546236 355.79413462 366.93086575 365.43768675 376.62755319 375.07996231 C386.57739971 384.97445315 396.51767135 394.87849637 406.4498859 404.79068619 C412.58015418 410.90785435 418.71832423 417.01687703 424.8667594 423.11578614 C429.07539809 427.29180519 433.27501368 431.47675468 437.46753379 435.66895539 C439.88940883 438.09006095 442.31526509 440.50680999 444.75208735 442.91287857 C447.38697471 445.51863406 450.00623421 448.13913332 452.6219871 450.76407486 C453.40172537 451.52788468 454.18146363 452.29169449 454.98483032 453.07865006 C455.67828499 453.78082657 456.37173966 454.48300308 457.08620811 455.20645767 C457.69305621 455.81032303 458.29990431 456.41418839 458.92514175 457.03635269 C460.08104777 458.81094986 460.08104777 458.81094986 459.89032322 460.88948208 C458.67360129 463.7783526 456.7323781 465.55791386 454.53295207 467.77896744 C454.06130626 468.2590828 453.58966044 468.73919815 453.10372233 469.23386246 C451.54532423 470.8156257 449.97600218 472.38597515 448.40526652 473.95548111 C447.31738986 475.05045761 446.22981359 476.14573262 445.14252543 477.24129349 C442.86361121 479.53364995 440.578848 481.8199847 438.29027629 484.10269791 C435.35427384 487.0327925 432.43696244 489.98075387 429.52418113 492.93390995 C427.28432802 495.19956832 425.03315057 497.45370167 422.77853656 499.70466286 C421.69767244 500.78722372 420.62080332 501.8737883 419.54800296 502.96434075 C418.04937381 504.4850267 416.53581512 505.98908529 415.01732707 507.48990494 C414.15874599 508.35054047 413.3001649 509.211176 412.41556621 510.09789139 C410.08104777 511.81094986 410.08104777 511.81094986 408.16209555 511.62189972 C405.65902701 510.64649536 404.34683892 509.44943264 402.44976497 507.54881054 C401.74163826 506.84665698 401.03351156 506.14450342 400.30392647 505.42107248 C399.53349723 504.64190472 398.76306798 503.86273695 397.9692924 503.05995804 C396.73297482 501.82748537 396.73297482 501.82748537 395.47168112 500.57011425 C393.18351938 498.28604541 390.90223012 495.99535807 388.62364435 493.7017433 C386.16558063 491.23074185 383.69887151 488.76839796 381.23319316 486.30499893 C376.9617908 482.03517074 372.69592196 477.75987769 368.43374705 473.48083931 C362.27133101 467.29405728 356.10066201 461.11556146 349.92793784 454.93906612 C339.91369033 444.91825037 329.90616267 434.89075139 319.90282512 424.85904557 C310.1846579 415.11334746 300.46334938 405.3708006 290.73778605 395.63248307 C290.13845084 395.03235968 289.53911562 394.43223629 288.92161873 393.81392734 C285.91495456 390.8033481 282.90822839 387.7928308 279.90147138 384.78234428 C254.9517091 359.80147445 230.0128373 334.80975667 205.08104777 309.81094986 C201.97584496 311.19185046 199.86728893 312.77884248 197.47655559 315.18331295 C196.42329082 316.23522982 196.42329082 316.23522982 195.34874797 317.30839753 C194.58493815 318.08144363 193.82112834 318.85448972 193.03417277 319.65096146 C192.21686687 320.47008635 191.39956096 321.28921123 190.5574882 322.13315809 C188.29030041 324.40730928 186.02766764 326.68588347 183.76682353 328.9663381 C181.3274128 331.42466049 178.88215293 333.87715169 176.43749309 336.33025223 C172.20245392 340.58130123 167.97082072 344.83571603 163.74120402 349.09215981 C157.05942018 355.81583501 150.36786798 362.52974096 143.67479777 369.2421785 C141.38567364 371.53818239 139.09662578 373.8342623 136.80761027 376.13037449 C136.23559382 376.70416259 135.66357738 377.2779507 135.07422709 377.86912632 C128.56425608 384.3995899 122.05662285 390.93238116 115.54979777 397.46597916 C114.95498607 398.06323342 114.36017436 398.66048768 113.74733806 399.27584056 C104.09786302 408.96536445 94.45431088 418.66076783 84.81203532 428.35745528 C74.91754448 438.3073018 65.01350127 448.24757344 55.10131145 458.17978799 C48.98414329 464.31005627 42.8751206 470.44822632 36.7762115 476.59666149 C32.60019244 480.80530018 28.41524295 485.00491577 24.22304225 489.19743588 C21.80193668 491.61931092 19.38518765 494.04516718 16.97911906 496.48198944 C14.37336358 499.1168768 11.75286432 501.7361363 9.12792277 504.35188919 C8.36411296 505.13162745 7.60030314 505.91136572 6.81334758 506.71473241 C6.11117106 507.40818708 5.40899455 508.10164175 4.68553996 508.81611019 C4.0816746 509.4229583 3.47780925 510.0298064 2.85564494 510.65504384 C1.08104777 511.81094986 1.08104777 511.81094986 -0.99748445 511.62022531 C-3.88635496 510.40350338 -5.66591623 508.46228019 -7.8869698 506.26285416 C-8.36708516 505.79120835 -8.84720052 505.31956253 -9.34186482 504.83362442 C-10.92362807 503.27522632 -12.49397752 501.70590427 -14.06348348 500.13516861 C-15.15845997 499.04729195 -16.25373498 497.95971568 -17.34929585 496.87242752 C-19.64165231 494.59351329 -21.92798707 492.30875009 -24.21070027 490.02017838 C-27.14079486 487.08417593 -30.08875623 484.16686453 -33.04191232 481.25408322 C-35.30757069 479.01423011 -37.56170404 476.76305266 -39.81266522 474.50843865 C-40.89522608 473.42757453 -41.98179067 472.35070541 -43.07234311 471.27790505 C-44.59302907 469.7792759 -46.09708765 468.26571721 -47.5979073 466.74722916 C-48.45854283 465.88864807 -49.31917836 465.03006699 -50.20589375 464.14546829 C-51.91895223 461.81094986 -51.91895223 461.81094986 -51.72990209 459.89199764 C-50.75449772 457.3889291 -49.55743501 456.07674101 -47.65681291 454.17966706 C-46.95465935 453.47154035 -46.25250579 452.76341365 -45.52907485 452.03382856 C-44.74990708 451.26339931 -43.97073932 450.49297007 -43.16796041 449.69919449 C-41.93548773 448.46287691 -41.93548773 448.46287691 -40.67811662 447.20158321 C-38.39404777 444.91342147 -36.10336044 442.6321322 -33.80974567 440.35354644 C-31.33874422 437.89548272 -28.87640032 435.4287736 -26.4130013 432.96309525 C-22.1431731 428.69169288 -17.86788006 424.42582404 -13.58884168 420.16364914 C-7.40205965 414.00123309 -1.22356382 407.8305641 4.95293152 401.65783992 C14.97374727 391.64359242 25.00124625 381.63606476 35.03295207 371.63272721 C44.77865018 361.91455999 54.52119703 352.19325146 64.25951457 342.46768814 C64.85963796 341.86835293 65.45976135 341.26901771 66.07807029 340.65152082 C69.08864953 337.64485665 72.09916684 334.63813048 75.10965335 331.63137347 C100.09052318 306.68161119 125.08224097 281.74273939 150.08104777 256.81094986 C148.70014718 253.70574704 147.11315516 251.59719102 144.70868468 249.20645767 C144.00740677 248.50428116 143.30612886 247.80210465 142.5836001 247.07865006 C141.81055401 246.31484024 141.03750791 245.55103043 140.24103618 244.76407486 C139.42191129 243.94676895 138.6027864 243.12946305 137.75883955 242.28739029 C135.48468835 240.0202025 133.20611416 237.75756973 130.92565954 235.49672562 C128.46733715 233.05731489 126.01484594 230.61205502 123.56174541 228.16739517 C119.3106964 223.932356 115.05628161 219.70072281 110.79983783 215.47110611 C104.07616263 208.78932227 97.36225668 202.09777007 90.64981914 195.40469986 C88.35381525 193.11557573 86.05773533 190.82652786 83.76162314 188.53751236 C83.18783504 187.96549591 82.61404694 187.39347946 82.02287132 186.80412918 C75.49240773 180.29415817 68.95961648 173.78652494 62.42601848 167.27969986 C61.82876421 166.68488816 61.23150995 166.09007645 60.61615708 165.47724015 C50.92663318 155.8277651 41.2312298 146.18421297 31.53454236 136.54193741 C21.58469583 126.64744657 11.64442419 116.74340336 1.71220964 106.83121353 C-4.41805863 100.71404537 -10.55622868 94.60502269 -16.70466385 88.50611359 C-20.91330255 84.33009453 -25.11291814 80.14514504 -29.30543824 75.95294434 C-31.72731329 73.53183877 -34.15316955 71.11508974 -36.58999181 68.70902115 C-39.22487917 66.10326567 -41.84413866 63.48276641 -44.45989156 60.85782486 C-45.23962982 60.09401505 -46.01936808 59.33020523 -46.82273477 58.54324967 C-47.51618944 57.84107315 -48.20964411 57.13889664 -48.92411256 56.41544205 C-49.53096066 55.81157669 -50.13780877 55.20771134 -50.76304621 54.58554703 C-51.91895223 52.81094986 -51.91895223 52.81094986 -51.72822767 50.73241764 C-50.51150575 47.84354712 -48.57028255 46.06398586 -46.37085652 43.84293228 C-45.89921071 43.36281693 -45.4275649 42.88270157 -44.94162679 42.38803726 C-43.38322869 40.80627402 -41.81390664 39.23592457 -40.24317098 37.66641861 C-39.15529432 36.57144212 -38.06771804 35.47616711 -36.98042989 34.38060623 C-34.70151566 32.08824977 -32.41675245 29.80191502 -30.12818074 27.51920182 C-27.19217829 24.58910722 -24.27486689 21.64114586 -21.36208558 18.68798977 C-19.12223247 16.4223314 -16.87105502 14.16819805 -14.61644101 11.91723686 C-13.5355769 10.834676 -12.45870777 9.74811142 -11.38590741 8.65755898 C-9.88727826 7.13687302 -8.37371957 5.63281443 -6.85523152 4.13199478 C-5.99665044 3.27135926 -5.13806935 2.41072373 -4.25347066 1.52400833 C-1.91895223 -0.18905014 -1.91895223 -0.18905014 0 0 Z " fill="currentColor" transform="translate(85,40)"/>
</svg>
